<svg width="102" height="60" viewBox="0 0 102 60" fill="none" xmlns="http://www.w3.org/2000/svg">
<path d="M3.047 1.6962C0.196581 3.40869 0 4.63189 0 18.8211C0 33.0103 0.196581 34.2335 3.047 35.946C4.61965 36.9246 5.40597 36.9246 50.7178 36.9246H96.7668L98.4869 35.4078C99.4698 34.576 100.453 33.1082 100.748 32.1296C101.386 29.781 101.386 7.86116 100.748 5.5126C100.453 4.53404 99.4698 3.06619 98.4869 2.23441L96.7668 0.717632H50.7178C5.40597 0.717632 4.61965 0.717632 3.047 1.6962ZM61.1857 13.6836C61.1857 14.6133 60.7926 14.6622 50.9144 14.809C44.8204 14.8579 40.3973 14.7111 40.1516 14.4665C39.9059 14.2218 39.8076 13.6347 39.955 13.1943C40.2499 12.5583 41.5768 12.4604 50.7178 12.5583C60.7926 12.7051 61.1857 12.754 61.1857 13.6836ZM91.754 25.9646C91.9015 26.405 91.754 26.9432 91.3609 27.1878C90.2797 27.8728 9.19015 27.775 8.50211 27.09C8.20724 26.7964 8.05981 26.2093 8.20724 25.8668C8.40382 25.2796 15.1367 25.1818 49.9315 25.1818C87.5275 25.1818 91.4592 25.2796 91.754 25.9646ZM91.6557 31.5424C91.6557 32.1785 86.6429 32.2764 50.1772 32.4232C25.4081 32.4721 8.45297 32.3253 8.20724 32.0807C6.73289 30.6128 8.89528 30.5639 50.0298 30.6617C86.6429 30.8085 91.6557 30.9064 91.6557 31.5424Z" fill="url(#paint0_linear_564_461)"/>
<path d="M30.5196 42.8446C29.0453 45.2421 29.1927 47.7374 31.0602 51.1135C32.5837 53.8045 32.6329 54.0492 32.1414 56.5445L31.6008 59.1377L32.682 57.8656C34.5987 55.6638 34.697 53.3642 33.026 49.9392C31.0602 45.9271 30.9619 45.6335 31.4534 43.4806C32.0431 41.0342 31.7483 40.8385 30.5196 42.8446Z" fill="url(#paint1_linear_564_461)"/>
<path d="M50.4224 42.2575C49.9801 42.7468 49.3412 43.97 49.0955 44.9975C48.6532 46.6121 48.7515 47.1503 50.3733 50.4774C52.1425 53.9513 52.1916 54.2449 51.7002 56.6424C51.2087 59.1867 51.2087 59.1867 52.1425 58.0613C53.4203 56.4956 54.0592 53.8046 53.5677 52.1899C53.3711 51.456 52.5848 49.6946 51.8476 48.3246C50.619 46.025 50.5207 45.5357 51.0122 43.6764C51.651 41.23 51.5528 40.9853 50.4224 42.2575Z" fill="url(#paint2_linear_564_461)"/>
<path d="M67.869 43.4321C66.4929 46.221 66.5421 47.0528 68.3604 50.3799C69.6874 52.8753 69.8839 53.6092 69.6874 56.1045C69.5891 57.6702 69.5399 58.9424 69.6382 58.9424C69.7365 58.9424 70.228 58.2085 70.7686 57.3277C71.948 55.4195 72.0463 52.386 70.9651 50.3799C68.6062 46.1232 68.6062 46.1232 69.1468 43.6768C69.7365 40.7411 69.1959 40.6432 67.869 43.4321Z" fill="url(#paint3_linear_564_461)"/>
<defs>
<linearGradient id="paint0_linear_564_461" x1="50.6134" y1="0.717632" x2="50.6134" y2="36.9246" gradientUnits="userSpaceOnUse">
<stop stop-color="#FEEDC4"/>
<stop offset="1" stop-color="#F7D788"/>
</linearGradient>
<linearGradient id="paint1_linear_564_461" x1="31.864" y1="41.4784" x2="31.864" y2="59.1377" gradientUnits="userSpaceOnUse">
<stop stop-color="#FEEDC4"/>
<stop offset="1" stop-color="#F7D788"/>
</linearGradient>
<linearGradient id="paint2_linear_564_461" x1="51.3013" y1="41.5017" x2="51.3013" y2="58.7808" gradientUnits="userSpaceOnUse">
<stop stop-color="#FEEDC4"/>
<stop offset="1" stop-color="#F7D788"/>
</linearGradient>
<linearGradient id="paint3_linear_564_461" x1="69.3132" y1="41.4058" x2="69.3132" y2="58.9424" gradientUnits="userSpaceOnUse">
<stop stop-color="#FEEDC4"/>
<stop offset="1" stop-color="#F7D788"/>
</linearGradient>
</defs>
</svg>
