<svg width="31" height="95" viewBox="0 0 31 95" fill="none" xmlns="http://www.w3.org/2000/svg">
<path d="M9.67588 1.17261C8.73712 1.89474 8.70101 2.07527 8.59269 5.86644L8.48438 9.83813H15.2724H22.0243V5.93865C22.0243 0.594909 22.0965 0.667122 15.5612 0.522696C11.0118 0.414377 10.5424 0.450483 9.67588 1.17261Z" fill="url(#paint0_linear_1273_18)"/>
<path d="M10.471 12.4737C10.471 13.4486 10.0377 14.0985 7.51028 16.5537C2.41928 21.5003 0.216797 26.3385 0.216797 32.4044C0.252903 34.3903 0.469541 36.1956 0.794498 37.0982L1.33609 38.5425H15.3454H29.3546L29.8962 37.0982C30.5822 35.2929 30.6183 30.5269 30.0045 27.8911C29.0297 23.8472 27.2243 20.7782 23.6137 17.0592C20.7974 14.1346 20.2197 13.3764 20.2197 12.4376V11.2822H15.3454H10.471V12.4737ZM11.1931 17.7091C11.1931 18.0702 10.6154 18.9367 9.8933 19.6228C6.82426 22.5474 5.12726 26.3385 4.7662 31.1407C4.54956 33.7764 4.40513 34.2097 3.82743 34.318C3.17752 34.4625 3.14141 34.2819 3.35805 31.4295C3.79133 26.0497 5.30779 22.4029 8.59347 18.9006C10.3988 16.987 11.1931 16.6259 11.1931 17.7091Z" fill="url(#paint1_linear_1273_18)"/>
<path d="M1.80469 56.0541V72.302H15.3446H28.8844V56.0541V39.8063H15.3446H1.80469V56.0541ZM6.13745 55.8736C6.13745 66.3806 6.06524 68.3303 5.63196 68.3303C5.34311 68.3303 5.05426 68.1859 4.98205 67.9692C4.90983 67.7887 4.90983 62.1561 4.98205 55.5126C5.05426 45.15 5.16258 43.4169 5.59585 43.4169C6.06524 43.4169 6.13745 45.15 6.13745 55.8736Z" fill="url(#paint2_linear_1273_18)"/>
<path d="M0.613808 74.6489C0.108319 75.7321 0 77.1403 0 83.3867C0 90.2108 0.0722127 90.8968 0.722127 91.98C1.66089 93.4965 3.4301 94.3269 5.77702 94.3269C7.4018 94.3269 7.79897 94.1825 8.66552 93.2437C9.20712 92.6299 9.89314 92.1605 10.182 92.1605C10.4708 92.1605 11.1569 92.6299 11.6624 93.2437C12.6011 94.2547 12.7816 94.3269 15.3452 94.3269C17.9087 94.3269 18.0893 94.2547 19.028 93.2437C20.2196 91.8717 20.7612 91.8717 22.0249 93.2437C22.8914 94.1825 23.2886 94.3269 24.9134 94.3269C27.2603 94.3269 29.0295 93.4965 29.9683 91.98C30.6182 90.8968 30.6904 90.2108 30.6904 83.5672C30.6904 77.718 30.5821 75.9849 30.1127 74.8295L29.535 73.3852H15.3813H1.22762L0.613808 74.6489ZM4.26055 83.3145C4.11612 91.8717 3.46621 91.9078 3.32178 83.3867C3.24957 77.8263 3.32178 76.9959 3.79117 76.9959C4.26055 76.9959 4.33276 77.8263 4.26055 83.3145Z" fill="url(#paint3_linear_1273_18)"/>
<defs>
<linearGradient id="paint0_linear_1273_18" x1="15.2543" y1="0.476986" x2="15.2543" y2="9.83813" gradientUnits="userSpaceOnUse">
<stop stop-color="#FEEDC4"/>
<stop offset="1" stop-color="#F6D788"/>
</linearGradient>
<linearGradient id="paint1_linear_1273_18" x1="15.3281" y1="11.2822" x2="15.3281" y2="38.5425" gradientUnits="userSpaceOnUse">
<stop stop-color="#FEEDC4"/>
<stop offset="1" stop-color="#F6D788"/>
</linearGradient>
<linearGradient id="paint2_linear_1273_18" x1="15.3446" y1="39.8063" x2="15.3446" y2="72.302" gradientUnits="userSpaceOnUse">
<stop stop-color="#FEEDC4"/>
<stop offset="1" stop-color="#F6D788"/>
</linearGradient>
<linearGradient id="paint3_linear_1273_18" x1="15.3452" y1="73.3852" x2="15.3452" y2="94.3269" gradientUnits="userSpaceOnUse">
<stop stop-color="#FEEDC4"/>
<stop offset="1" stop-color="#F6D788"/>
</linearGradient>
</defs>
</svg>
