<svg width="28" height="10" viewBox="0 0 28 10" fill="none" xmlns="http://www.w3.org/2000/svg">
<path d="M7.7899 0.628877C7.55789 0.694541 7.56884 0.685785 7.55351 0.871832C7.54476 0.963761 7.53381 1.04694 7.52725 1.05788C7.51412 1.07977 6.98881 1.2877 6.23586 1.57006C5.25528 1.93558 3.93326 2.4784 3.66841 2.62724C3.49769 2.72136 3.24598 2.82642 3.12121 2.85488C3.07087 2.86582 2.90671 2.88552 2.76006 2.89646C2.61342 2.9096 2.39454 2.93805 2.27415 2.96213C1.93708 3.02998 1.52996 3.06938 1.04186 3.08689L0.59754 3.10002L0.503422 3.24448C0.374283 3.44366 0.372094 3.45242 0.446513 3.52902C0.527498 3.61001 0.529687 3.67129 0.45308 3.85734C0.39836 3.99305 0.393982 4.02807 0.385227 4.41767L0.376472 4.83354L0.293298 4.90358C0.094118 5.07431 0.00218879 5.36104 0 5.8185C0 6.24312 0.0240767 6.68526 0.0569085 6.87349C0.0853628 7.0289 0.0875516 7.03546 0.214501 7.14053C0.365528 7.26748 0.499044 7.42288 0.56033 7.54326C0.700413 7.81905 1.72914 8.0051 3.58962 8.09046L3.79098 8.09922L3.77785 7.83875C3.76472 7.52794 3.79536 7.27842 3.8851 7.00044C4.13025 6.22999 4.74749 5.63902 5.53983 5.42014C5.73682 5.36323 5.78497 5.35885 6.14831 5.35885C6.50946 5.35885 6.5598 5.36323 6.75679 5.41795C7.19674 5.54052 7.54695 5.75064 7.85994 6.07896C8.16638 6.39634 8.34586 6.72028 8.45967 7.15585C8.50564 7.32876 8.5122 7.39443 8.51002 7.76652C8.50783 8.0445 8.49688 8.23492 8.47499 8.34217L8.44216 8.50195L15.0217 8.48663C18.6397 8.47788 21.6034 8.46912 21.6077 8.46693C21.6099 8.46474 21.5902 8.38595 21.564 8.28964C21.5224 8.14299 21.5158 8.05982 21.5158 7.72274C21.5136 7.3594 21.518 7.31344 21.5749 7.11207C21.831 6.19059 22.5971 5.50112 23.512 5.36761C23.7724 5.3304 24.2233 5.35228 24.4575 5.41357C24.9807 5.55146 25.4491 5.86227 25.773 6.2869C25.9262 6.48827 26.1101 6.8713 26.1779 7.13177C26.2305 7.32438 26.237 7.39224 26.237 7.70086C26.2392 7.95476 26.2283 8.09703 26.202 8.21303C26.1801 8.30277 26.167 8.37719 26.1692 8.37938C26.1735 8.38157 26.3049 8.375 26.4603 8.36625C27.0425 8.33123 27.4627 8.26775 27.6094 8.19333C27.7145 8.1408 27.8217 8.01604 27.8874 7.87377L27.9399 7.75995L27.9049 7.41631C27.8721 7.08362 27.8721 7.05954 27.9136 6.7947C28.0515 5.94545 28.0231 5.30632 27.837 5.03929C27.5437 4.61685 26.6857 4.30385 24.7092 3.90331C23.0961 3.57718 21.8157 3.44585 20.2594 3.44366C19.7604 3.44366 19.7648 3.44366 19.4999 3.25761C19.0906 2.97088 17.2126 1.92902 16.2802 1.47375C15.4419 1.06445 14.5555 0.8587 13.1306 0.747071C12.6753 0.709862 10.7097 0.712051 10.0662 0.747071C9.8014 0.762393 9.37896 0.788658 9.12506 0.806169C8.46405 0.854322 8.49907 0.854322 8.37869 0.784281C8.07226 0.606989 7.96938 0.578535 7.7899 0.628877ZM11.9158 1.35774C11.9289 1.43873 11.9989 1.87868 12.0712 2.33394C12.1412 2.7914 12.2156 3.25761 12.2353 3.37143C12.255 3.48525 12.2682 3.58155 12.2638 3.58374C12.2397 3.60344 8.54504 3.52027 7.99346 3.48744C7.54257 3.45898 7.08074 3.40864 6.9319 3.36924C6.7174 3.31233 6.49852 3.10878 6.38689 2.86363C6.31028 2.69947 6.30809 2.48716 6.37595 2.30549C6.41315 2.20699 6.44161 2.17197 6.52478 2.11725C6.70645 1.99906 6.82027 1.94215 7.07855 1.83928C7.82492 1.5416 8.95653 1.33586 10.2742 1.25487C10.863 1.21985 10.8652 1.21985 11.3927 1.21547L11.8895 1.21109L11.9158 1.35774ZM13.2947 1.25487C13.8726 1.29427 14.9954 1.49564 15.547 1.66199C15.9541 1.78456 16.521 2.07348 17.2017 2.50905C17.6635 2.80234 17.8014 2.90522 17.7489 2.91397C17.5847 2.94024 17.4578 3.02341 17.3943 3.14598C17.3527 3.22259 17.3483 3.44366 17.3856 3.53778L17.4096 3.59688L15.4244 3.5925L13.4414 3.58593L13.3122 3.23573C13.0715 2.57471 12.66 1.31397 12.66 1.23079C12.66 1.21766 12.8679 1.22642 13.2947 1.25487Z" fill="#F6D687"/>
<path d="M5.74971 5.46842C5.26161 5.55597 4.85231 5.77704 4.50648 6.13819C4.21756 6.44024 4.04027 6.75762 3.93302 7.16036C3.88486 7.34203 3.87611 7.42082 3.87611 7.70099C3.87392 8.07089 3.898 8.21754 4.01838 8.53711C4.2088 9.04053 4.61154 9.49142 5.09745 9.74313C5.2835 9.83944 5.48706 9.91385 5.69062 9.95763C5.92482 10.008 6.37352 10.008 6.60772 9.95544C7.46572 9.77158 8.13768 9.13464 8.36313 8.28977C8.41347 8.10154 8.42004 8.02712 8.42222 7.73382C8.42441 7.38799 8.41128 7.29825 8.32154 7.01152C8.10704 6.33299 7.54452 5.77047 6.85943 5.54722C6.53111 5.43778 6.0846 5.40714 5.74971 5.46842ZM6.51579 6.12725C7.0608 6.24982 7.51607 6.66788 7.7043 7.21945C7.75902 7.37705 7.76559 7.42739 7.76559 7.70099C7.76778 8.03587 7.73276 8.20003 7.60362 8.45612C7.39787 8.86323 6.98419 9.19374 6.54205 9.30099C6.33193 9.35352 5.95546 9.35352 5.75409 9.30099C5.05368 9.11713 4.56339 8.52397 4.52399 7.81043C4.48021 7.02465 4.98145 6.33737 5.74534 6.136C5.95108 6.08347 6.2991 6.07909 6.51579 6.12725Z" fill="#F6D687"/>
<path d="M5.67766 6.40517C5.59886 6.43363 5.49161 6.48397 5.43908 6.5168L5.34277 6.57809L5.59667 6.8298C5.77397 7.00928 5.85933 7.07932 5.8834 7.07056C5.91405 7.05743 5.91843 7.00709 5.91843 6.70504C5.91843 6.29792 5.93156 6.31543 5.67766 6.40517Z" fill="#F6D687"/>
<path d="M6.37793 6.70285C6.37793 7.00709 6.38231 7.05743 6.41295 7.07056C6.43703 7.07932 6.52239 7.00928 6.69749 6.83417L6.9492 6.58465L6.88792 6.5365C6.8135 6.47521 6.58586 6.38328 6.46548 6.36358L6.37793 6.34826V6.70285Z" fill="#F6D687"/>
<path d="M4.98164 6.95026C4.92036 7.02906 4.78027 7.36832 4.78027 7.44274C4.78027 7.46463 4.85469 7.47119 5.14142 7.47119C5.47193 7.47119 5.50257 7.469 5.50257 7.43179C5.50257 7.39896 5.05168 6.92399 5.01885 6.92399C5.0101 6.92399 4.99477 6.93713 4.98164 6.95026Z" fill="#F6D687"/>
<path d="M7.03909 7.16257C6.90338 7.29171 6.79395 7.41428 6.79395 7.43398C6.79395 7.46681 6.83115 7.47119 7.1551 7.47119C7.44183 7.47119 7.51625 7.46463 7.51625 7.44274C7.51625 7.35519 7.36522 6.99404 7.30831 6.94588C7.29299 6.93275 7.20325 7.00498 7.03909 7.16257Z" fill="#F6D687"/>
<path d="M6.07409 7.20414C6.04783 7.25229 6.09817 7.33984 6.14851 7.33984C6.16602 7.33984 6.19448 7.31796 6.21199 7.29169C6.25576 7.2304 6.22074 7.16474 6.14851 7.16474C6.12006 7.16474 6.08504 7.18225 6.07409 7.20414Z" fill="#F6D687"/>
<path d="M6.00371 7.57858C5.93366 7.65081 5.92272 7.72523 5.97306 7.81935C6.03654 7.94411 6.2007 7.95943 6.30357 7.84999C6.41958 7.72523 6.32327 7.51511 6.14817 7.51511C6.08907 7.51511 6.05186 7.53262 6.00371 7.57858Z" fill="#F6D687"/>
<path d="M5.61228 7.65717C5.55537 7.72721 5.64073 7.83446 5.71734 7.7863C5.76987 7.75128 5.77644 7.68781 5.73047 7.65279C5.68013 7.61558 5.64511 7.61777 5.61228 7.65717Z" fill="#F6D687"/>
<path d="M6.5666 7.6592C6.52283 7.70079 6.52283 7.74237 6.56223 7.7774C6.61257 7.81898 6.69574 7.79491 6.70231 7.738C6.71763 7.64169 6.63227 7.59135 6.5666 7.6592Z" fill="#F6D687"/>
<path d="M4.78027 7.98574C4.78027 8.04921 4.87001 8.29217 4.93787 8.41036L5.00572 8.52637L5.26181 8.27028C5.41721 8.11487 5.51571 8.00106 5.50914 7.98355C5.50039 7.95947 5.42159 7.9529 5.13923 7.9529C4.83062 7.9529 4.78027 7.95728 4.78027 7.98574Z" fill="#F6D687"/>
<path d="M6.79395 7.99207C6.79395 8.01177 6.90557 8.1409 7.04347 8.2788L7.29299 8.52832L7.36084 8.41013C7.42651 8.2985 7.51625 8.04898 7.51625 7.98331C7.51625 7.95924 7.44839 7.95267 7.1551 7.95267C6.82459 7.95267 6.79395 7.95486 6.79395 7.99207Z" fill="#F6D687"/>
<path d="M6.07168 8.14731C6.05636 8.18015 6.06074 8.19985 6.08919 8.23705C6.15924 8.32461 6.27524 8.24581 6.2249 8.14731C6.19426 8.09259 6.10233 8.09259 6.07168 8.14731Z" fill="#F6D687"/>
<path d="M5.59475 8.59396C5.46124 8.72967 5.34961 8.84568 5.34961 8.85443C5.34961 8.89383 5.80488 9.09082 5.89462 9.09082C5.90994 9.09082 5.91869 8.97263 5.91869 8.73186C5.91869 8.42543 5.91432 8.37071 5.88367 8.35976C5.86397 8.3532 5.84865 8.34663 5.84646 8.34663C5.84428 8.34663 5.73046 8.45826 5.59475 8.59396Z" fill="#F6D687"/>
<path d="M6.40639 8.36195C6.37356 8.37509 6.3648 9.09082 6.39763 9.09082C6.49832 9.09082 6.94702 8.89821 6.94702 8.85443C6.94702 8.83473 6.45892 8.34663 6.4436 8.34882C6.43703 8.34882 6.41952 8.35539 6.40639 8.36195Z" fill="#F6D687"/>
<path d="M23.4068 5.48156C22.5532 5.66542 21.8834 6.30454 21.6623 7.14285C21.5945 7.39894 21.5726 7.78198 21.6098 8.04244C21.682 8.5393 21.9381 9.03397 22.3058 9.37542C22.8902 9.92261 23.7132 10.1284 24.4793 9.92043C24.7354 9.85038 25.0987 9.66215 25.311 9.49142C26.377 8.62466 26.4448 7.02247 25.4577 6.07691C25.2454 5.87335 25.0944 5.77048 24.8229 5.64353C24.5231 5.50345 24.3086 5.45529 23.9321 5.44435C23.6695 5.43778 23.5775 5.44435 23.4068 5.48156ZM24.3808 6.16665C24.9017 6.34394 25.276 6.73136 25.4446 7.27418C25.5102 7.4843 25.5168 7.90674 25.4555 8.12343C25.2147 8.99895 24.3327 9.51769 23.4615 9.29662C23.1354 9.21345 22.7764 8.97487 22.5816 8.71221C22.1964 8.19128 22.1373 7.54559 22.4262 6.96775C22.5006 6.81672 22.5575 6.7423 22.7283 6.57377C22.8968 6.40304 22.9712 6.34613 23.1244 6.26952C23.4068 6.12725 23.5775 6.09223 23.9212 6.10099C24.1597 6.10755 24.2342 6.11631 24.3808 6.16665Z" fill="#F6D687"/>
<path d="M23.4135 6.39861C23.2953 6.44019 23.0786 6.55401 23.0786 6.57371C23.0786 6.58027 23.1902 6.69847 23.3281 6.83417C23.5032 7.00928 23.5886 7.07932 23.6127 7.07056C23.6433 7.05962 23.6477 7.00709 23.6477 6.70504V6.35483L23.5886 6.35702C23.5536 6.35702 23.4748 6.37672 23.4135 6.39861Z" fill="#F6D687"/>
<path d="M24.1074 6.70311C24.1074 7.00736 24.1118 7.0577 24.1424 7.07083C24.1906 7.08834 24.6831 6.59805 24.6546 6.56303C24.6174 6.51926 24.2978 6.37917 24.2015 6.36385L24.1074 6.34853V6.70311Z" fill="#F6D687"/>
<path d="M22.6756 7.00279C22.6122 7.0991 22.5093 7.36394 22.5093 7.42742C22.5093 7.469 22.5246 7.47119 22.8704 7.47119C23.1462 7.47119 23.2316 7.46463 23.2316 7.44274C23.2316 7.42742 23.1199 7.30484 22.9821 7.16695L22.7325 6.91743L22.6756 7.00279Z" fill="#F6D687"/>
<path d="M24.7484 7.16914C24.6149 7.30484 24.5098 7.4296 24.5164 7.44273C24.5295 7.47557 25.2453 7.48432 25.2453 7.45149C25.2453 7.35299 25.0527 6.92399 25.0089 6.92399C25.0001 6.92399 24.8841 7.03562 24.7484 7.16914Z" fill="#F6D687"/>
<path d="M23.8051 7.19086C23.7678 7.22807 23.7722 7.26091 23.8204 7.30468C23.8554 7.33532 23.8707 7.33751 23.9101 7.31781C23.978 7.2806 23.9626 7.17773 23.8882 7.16898C23.8576 7.1646 23.8204 7.17554 23.8051 7.19086Z" fill="#F6D687"/>
<path d="M23.7267 7.58264C23.5778 7.75993 23.7639 8.00726 23.9674 7.89783C24.1622 7.79276 24.09 7.51479 23.8667 7.51479C23.8011 7.51479 23.7704 7.52792 23.7267 7.58264Z" fill="#F6D687"/>
<path d="M23.3413 7.65499C23.2997 7.70533 23.3237 7.7885 23.3807 7.79507C23.477 7.81039 23.5273 7.72503 23.4595 7.65936C23.4179 7.61559 23.3763 7.61559 23.3413 7.65499Z" fill="#F6D687"/>
<path d="M24.2957 7.65277C24.2497 7.68779 24.2563 7.75127 24.311 7.78629C24.392 7.83663 24.4795 7.70968 24.4007 7.65277C24.3789 7.63745 24.3548 7.62432 24.3482 7.62432C24.3416 7.62432 24.3176 7.63745 24.2957 7.65277Z" fill="#F6D687"/>
<path d="M22.5093 7.99644C22.5093 8.05992 22.6034 8.30506 22.6712 8.42326L22.7325 8.52832L22.9864 8.27442C23.1637 8.09713 23.2338 8.01177 23.225 7.98769C23.2119 7.95705 23.1615 7.95267 22.8595 7.95267C22.5268 7.95267 22.5093 7.95486 22.5093 7.99644Z" fill="#F6D687"/>
<path d="M24.5164 7.97915C24.5098 7.99447 24.6193 8.12361 24.7593 8.2637L25.0132 8.52197L25.0723 8.42785C25.1314 8.33155 25.2453 8.04044 25.2453 7.98353C25.2453 7.95726 25.184 7.95289 24.8863 7.95289C24.6193 7.95289 24.523 7.95945 24.5164 7.97915Z" fill="#F6D687"/>
<path d="M23.803 8.14739C23.7724 8.20211 23.7921 8.25245 23.8468 8.26996C23.9059 8.28966 23.9584 8.24151 23.9497 8.17366C23.9409 8.09924 23.838 8.07954 23.803 8.14739Z" fill="#F6D687"/>
<path d="M23.3238 8.59396C23.1902 8.72967 23.0786 8.84568 23.0786 8.85443C23.0786 8.89821 23.5186 9.09082 23.6192 9.09082C23.6411 9.09082 23.6477 9.0164 23.6477 8.73186C23.6477 8.42543 23.6433 8.37071 23.6127 8.35976C23.593 8.3532 23.5777 8.34663 23.5755 8.34663C23.5733 8.34663 23.4595 8.45826 23.3238 8.59396Z" fill="#F6D687"/>
<path d="M24.1359 8.36195C24.114 8.36852 24.1074 8.46483 24.1074 8.73186C24.1074 8.92885 24.1162 9.09082 24.1249 9.09082C24.2037 9.09082 24.532 8.9573 24.6481 8.87632C24.6831 8.85443 24.1753 8.34663 24.1359 8.36195Z" fill="#F6D687"/>
</svg>
