<svg width="28" height="10" viewBox="0 0 28 10" fill="none" xmlns="http://www.w3.org/2000/svg">
<path d="M7.7899 0.628999C7.55789 0.694663 7.56884 0.685907 7.55351 0.871954C7.54476 0.963883 7.53381 1.04706 7.52725 1.058C7.51412 1.07989 6.98881 1.28782 6.23586 1.57018C5.25528 1.93571 3.93326 2.47853 3.66841 2.62736C3.49769 2.72148 3.24598 2.82654 3.12121 2.855C3.07087 2.86594 2.90671 2.88564 2.76006 2.89658C2.61342 2.90972 2.39454 2.93817 2.27415 2.96225C1.93708 3.0301 1.52996 3.0695 1.04186 3.08701L0.59754 3.10014L0.503422 3.2446C0.374283 3.44378 0.372094 3.45254 0.446513 3.52915C0.527498 3.61013 0.529687 3.67142 0.45308 3.85746C0.39836 3.99317 0.393982 4.02819 0.385227 4.41779L0.376472 4.83366L0.293298 4.9037C0.094118 5.07443 0.00218879 5.36116 0 5.81862C0 6.24324 0.0240767 6.68538 0.0569085 6.87362C0.0853628 7.02902 0.0875516 7.03559 0.214501 7.14065C0.365528 7.2676 0.499044 7.423 0.56033 7.54339C0.700413 7.81917 1.72914 8.00522 3.58962 8.09058L3.79098 8.09934L3.77785 7.83887C3.76472 7.52806 3.79536 7.27854 3.8851 7.00057C4.13025 6.23011 4.74749 5.63914 5.53983 5.42026C5.73682 5.36335 5.78497 5.35897 6.14831 5.35897C6.50946 5.35897 6.5598 5.36335 6.75679 5.41807C7.19674 5.54064 7.54695 5.75077 7.85994 6.07909C8.16638 6.39646 8.34586 6.7204 8.45967 7.15597C8.50564 7.32888 8.5122 7.39455 8.51002 7.76664C8.50783 8.04462 8.49688 8.23504 8.47499 8.34229L8.44216 8.50208L15.0217 8.48675C18.6397 8.478 21.6034 8.46924 21.6077 8.46705C21.6099 8.46487 21.5902 8.38607 21.564 8.28976C21.5224 8.14311 21.5158 8.05994 21.5158 7.72287C21.5136 7.35953 21.518 7.31356 21.5749 7.11219C21.831 6.19071 22.5971 5.50124 23.512 5.36773C23.7724 5.33052 24.2233 5.35241 24.4575 5.41369C24.9807 5.55159 25.4491 5.86239 25.773 6.28702C25.9262 6.48839 26.1101 6.87143 26.1779 7.13189C26.2305 7.32451 26.237 7.39236 26.237 7.70098C26.2392 7.95488 26.2283 8.09715 26.202 8.21315C26.1801 8.3029 26.167 8.37731 26.1692 8.3795C26.1735 8.38169 26.3049 8.37513 26.4603 8.36637C27.0425 8.33135 27.4627 8.26787 27.6094 8.19346C27.7145 8.14092 27.8217 8.01616 27.8874 7.87389L27.9399 7.76008L27.9049 7.41644C27.8721 7.08374 27.8721 7.05966 27.9136 6.79482C28.0515 5.94557 28.0231 5.30644 27.837 5.03941C27.5437 4.61697 26.6857 4.30398 24.7092 3.90343C23.0961 3.5773 21.8157 3.44597 20.2594 3.44378C19.7604 3.44378 19.7648 3.44378 19.4999 3.25774C19.0906 2.971 17.2126 1.92914 16.2802 1.47387C15.4419 1.06457 14.5555 0.858822 13.1306 0.747193C12.6753 0.709984 10.7097 0.712173 10.0662 0.747193C9.8014 0.762515 9.37896 0.78878 9.12506 0.806291C8.46405 0.854444 8.49907 0.854444 8.37869 0.784403C8.07226 0.607111 7.96938 0.578657 7.7899 0.628999ZM11.9158 1.35787C11.9289 1.43885 11.9989 1.8788 12.0712 2.33407C12.1412 2.79152 12.2156 3.25774 12.2353 3.37155C12.255 3.48537 12.2682 3.58168 12.2638 3.58386C12.2397 3.60356 8.54504 3.52039 7.99346 3.48756C7.54257 3.4591 7.08074 3.40876 6.9319 3.36936C6.7174 3.31245 6.49852 3.1089 6.38689 2.86375C6.31028 2.69959 6.30809 2.48728 6.37595 2.30561C6.41315 2.20712 6.44161 2.1721 6.52478 2.11738C6.70645 1.99918 6.82027 1.94227 7.07855 1.8394C7.82492 1.54172 8.95653 1.33598 10.2742 1.25499C10.863 1.21997 10.8652 1.21997 11.3927 1.21559L11.8895 1.21122L11.9158 1.35787ZM13.2947 1.25499C13.8726 1.29439 14.9954 1.49576 15.547 1.66211C15.9541 1.78468 16.521 2.0736 17.2017 2.50917C17.6635 2.80247 17.8014 2.90534 17.7489 2.9141C17.5847 2.94036 17.4578 3.02353 17.3943 3.14611C17.3527 3.22271 17.3483 3.44378 17.3856 3.5379L17.4096 3.597L15.4244 3.59262L13.4414 3.58605L13.3122 3.23585C13.0715 2.57483 12.66 1.31409 12.66 1.23092C12.66 1.21778 12.8679 1.22654 13.2947 1.25499Z" fill="#F6D687"/>
<path d="M5.75069 5.46842C5.26259 5.55597 4.85329 5.77704 4.50746 6.13819C4.21854 6.44024 4.04124 6.75762 3.93399 7.16036C3.88584 7.34203 3.87709 7.42082 3.87709 7.70099C3.8749 8.07089 3.89897 8.21754 4.01936 8.53711C4.20978 9.04053 4.61252 9.49142 5.09843 9.74313C5.28448 9.83944 5.48803 9.91385 5.69159 9.95763C5.92579 10.008 6.37449 10.008 6.60869 9.95544C7.4667 9.77158 8.13866 9.13464 8.3641 8.28977C8.41445 8.10154 8.42101 8.02712 8.4232 7.73382C8.42539 7.38799 8.41226 7.29825 8.32252 7.01152C8.10802 6.33299 7.5455 5.77047 6.86041 5.54722C6.53209 5.43778 6.08557 5.40714 5.75069 5.46842ZM6.51677 6.12725C7.06177 6.24982 7.51704 6.66788 7.70528 7.21945C7.76 7.37705 7.76656 7.42739 7.76656 7.70099C7.76875 8.03587 7.73373 8.20003 7.60459 8.45612C7.39885 8.86323 6.98517 9.19374 6.54303 9.30099C6.33291 9.35352 5.95644 9.35352 5.75507 9.30099C5.05465 9.11713 4.56437 8.52397 4.52497 7.81043C4.48119 7.02465 4.98242 6.33737 5.74631 6.136C5.95206 6.08347 6.30008 6.07909 6.51677 6.12725Z" fill="#F6D687"/>
<path d="M5.67863 6.40517C5.59984 6.43363 5.49259 6.48397 5.44006 6.5168L5.34375 6.57809L5.59765 6.8298C5.77494 7.00928 5.8603 7.07932 5.88438 7.07056C5.91502 7.05743 5.9194 7.00709 5.9194 6.70504C5.9194 6.29792 5.93253 6.31543 5.67863 6.40517Z" fill="#F6D687"/>
<path d="M6.37891 6.70285C6.37891 7.00709 6.38328 7.05743 6.41393 7.07056C6.438 7.07932 6.52337 7.00928 6.69847 6.83417L6.95018 6.58465L6.88889 6.5365C6.81448 6.47521 6.58684 6.38328 6.46646 6.36358L6.37891 6.34826V6.70285Z" fill="#F6D687"/>
<path d="M4.98262 6.94977C4.92133 7.02857 4.78125 7.36783 4.78125 7.44225C4.78125 7.46414 4.85567 7.4707 5.1424 7.4707C5.47291 7.4707 5.50355 7.46851 5.50355 7.4313C5.50355 7.39847 5.05266 6.92351 5.01983 6.92351C5.01107 6.92351 4.99575 6.93664 4.98262 6.94977Z" fill="#F6D687"/>
<path d="M7.04007 7.16208C6.90436 7.29122 6.79492 7.41379 6.79492 7.43349C6.79492 7.46633 6.83213 7.4707 7.15607 7.4707C7.4428 7.4707 7.51722 7.46414 7.51722 7.44225C7.51722 7.3547 7.3662 6.99355 7.30929 6.94539C7.29397 6.93226 7.20423 7.00449 7.04007 7.16208Z" fill="#F6D687"/>
<path d="M6.07361 7.20414C6.04734 7.25229 6.09768 7.33984 6.14803 7.33984C6.16554 7.33984 6.19399 7.31796 6.2115 7.29169C6.25528 7.2304 6.22026 7.16474 6.14803 7.16474C6.11957 7.16474 6.08455 7.18225 6.07361 7.20414Z" fill="#F6D687"/>
<path d="M6.00322 7.57809C5.93318 7.65032 5.92223 7.72474 5.97257 7.81886C6.03605 7.94362 6.20021 7.95894 6.30308 7.8495C6.41909 7.72474 6.32278 7.51462 6.14768 7.51462C6.08858 7.51462 6.05137 7.53213 6.00322 7.57809Z" fill="#F6D687"/>
<path d="M5.61228 7.65765C5.55537 7.7277 5.64073 7.83495 5.71734 7.78679C5.76987 7.75177 5.77644 7.6883 5.73047 7.65328C5.68013 7.61607 5.64511 7.61826 5.61228 7.65765Z" fill="#F6D687"/>
<path d="M6.5666 7.65969C6.52283 7.70128 6.52283 7.74286 6.56223 7.77788C6.61257 7.81947 6.69574 7.79539 6.70231 7.73849C6.71763 7.64218 6.63227 7.59184 6.5666 7.65969Z" fill="#F6D687"/>
<path d="M4.78125 7.98549C4.78125 8.04897 4.87099 8.29192 4.93884 8.41012L5.0067 8.52612L5.26278 8.27003C5.41819 8.11463 5.51668 8.00081 5.51012 7.9833C5.50136 7.95923 5.42257 7.95266 5.14021 7.95266C4.83159 7.95266 4.78125 7.95704 4.78125 7.98549Z" fill="#F6D687"/>
<path d="M6.79492 7.99207C6.79492 8.01177 6.90655 8.1409 7.04444 8.2788L7.29397 8.52832L7.36182 8.41013C7.42748 8.2985 7.51722 8.04898 7.51722 7.98331C7.51722 7.95924 7.44937 7.95267 7.15607 7.95267C6.82556 7.95267 6.79492 7.95486 6.79492 7.99207Z" fill="#F6D687"/>
<path d="M6.0712 8.1478C6.05587 8.18063 6.06025 8.20033 6.08871 8.23754C6.15875 8.32509 6.27475 8.2463 6.22441 8.1478C6.19377 8.09308 6.10184 8.09308 6.0712 8.1478Z" fill="#F6D687"/>
<path d="M5.59475 8.59396C5.46124 8.72967 5.34961 8.84568 5.34961 8.85443C5.34961 8.89383 5.80488 9.09082 5.89462 9.09082C5.90994 9.09082 5.91869 8.97263 5.91869 8.73186C5.91869 8.42543 5.91432 8.37071 5.88367 8.35976C5.86397 8.3532 5.84865 8.34663 5.84646 8.34663C5.84428 8.34663 5.73046 8.45826 5.59475 8.59396Z" fill="#F6D687"/>
<path d="M6.40639 8.36195C6.37356 8.37509 6.3648 9.09082 6.39763 9.09082C6.49832 9.09082 6.94702 8.89821 6.94702 8.85443C6.94702 8.83473 6.45892 8.34663 6.4436 8.34882C6.43703 8.34882 6.41952 8.35539 6.40639 8.36195Z" fill="#F6D687"/>
<path d="M23.4068 5.48156C22.5532 5.66542 21.8834 6.30454 21.6623 7.14285C21.5945 7.39894 21.5726 7.78198 21.6098 8.04244C21.682 8.5393 21.9381 9.03397 22.3058 9.37542C22.8902 9.92261 23.7132 10.1284 24.4793 9.92043C24.7354 9.85038 25.0987 9.66215 25.311 9.49142C26.377 8.62466 26.4448 7.02247 25.4577 6.07691C25.2454 5.87335 25.0944 5.77048 24.8229 5.64353C24.5231 5.50345 24.3086 5.45529 23.9321 5.44435C23.6695 5.43778 23.5775 5.44435 23.4068 5.48156ZM24.3808 6.16665C24.9017 6.34394 25.276 6.73136 25.4446 7.27418C25.5102 7.4843 25.5168 7.90674 25.4555 8.12343C25.2147 8.99895 24.3327 9.51769 23.4615 9.29662C23.1354 9.21345 22.7764 8.97487 22.5816 8.71221C22.1964 8.19128 22.1373 7.54559 22.4262 6.96775C22.5006 6.81672 22.5575 6.7423 22.7283 6.57377C22.8968 6.40304 22.9712 6.34613 23.1244 6.26952C23.4068 6.12725 23.5775 6.09223 23.9212 6.10099C24.1597 6.10755 24.2342 6.11631 24.3808 6.16665Z" fill="#F6D687"/>
<path d="M23.413 6.39861C23.2948 6.44019 23.0781 6.55401 23.0781 6.57371C23.0781 6.58027 23.1898 6.69847 23.3276 6.83417C23.5028 7.00928 23.5881 7.07932 23.6122 7.07056C23.6428 7.05962 23.6472 7.00709 23.6472 6.70504V6.35483L23.5881 6.35702C23.5531 6.35702 23.4743 6.37672 23.413 6.39861Z" fill="#F6D687"/>
<path d="M24.1074 6.70287C24.1074 7.00711 24.1118 7.05745 24.1424 7.07059C24.1906 7.0881 24.6831 6.59781 24.6546 6.56279C24.6174 6.51901 24.2978 6.37893 24.2015 6.36361L24.1074 6.34829V6.70287Z" fill="#F6D687"/>
<path d="M22.6761 7.0023C22.6126 7.09861 22.5098 7.36345 22.5098 7.42693C22.5098 7.46851 22.5251 7.4707 22.8709 7.4707C23.1467 7.4707 23.2321 7.46414 23.2321 7.44225C23.2321 7.42693 23.1204 7.30436 22.9825 7.16646L22.733 6.91694L22.6761 7.0023Z" fill="#F6D687"/>
<path d="M24.7479 7.16865C24.6144 7.30435 24.5094 7.42911 24.5159 7.44225C24.529 7.47508 25.2448 7.48383 25.2448 7.451C25.2448 7.35251 25.0522 6.9235 25.0084 6.9235C24.9996 6.9235 24.8836 7.03513 24.7479 7.16865Z" fill="#F6D687"/>
<path d="M23.806 7.19135C23.7688 7.22856 23.7732 7.26139 23.8213 7.30517C23.8564 7.33581 23.8717 7.338 23.9111 7.3183C23.9789 7.28109 23.9636 7.17822 23.8892 7.16946C23.8586 7.16509 23.8213 7.17603 23.806 7.19135Z" fill="#F6D687"/>
<path d="M23.7257 7.58288C23.5768 7.76018 23.7629 8.00751 23.9664 7.89807C24.1612 7.79301 24.089 7.51503 23.8658 7.51503C23.8001 7.51503 23.7695 7.52816 23.7257 7.58288Z" fill="#F6D687"/>
<path d="M23.3413 7.65499C23.2997 7.70533 23.3237 7.7885 23.3807 7.79507C23.477 7.81039 23.5273 7.72503 23.4595 7.65936C23.4179 7.61559 23.3763 7.61559 23.3413 7.65499Z" fill="#F6D687"/>
<path d="M24.2962 7.65277C24.2502 7.68779 24.2568 7.75127 24.3115 7.78629C24.3925 7.83663 24.48 7.70968 24.4012 7.65277C24.3793 7.63745 24.3553 7.62432 24.3487 7.62432C24.3421 7.62432 24.3181 7.63745 24.2962 7.65277Z" fill="#F6D687"/>
<path d="M22.5098 7.99644C22.5098 8.05992 22.6039 8.30506 22.6717 8.42326L22.733 8.52832L22.9869 8.27442C23.1642 8.09713 23.2343 8.01177 23.2255 7.98769C23.2124 7.95705 23.162 7.95267 22.86 7.95267C22.5273 7.95267 22.5098 7.95486 22.5098 7.99644Z" fill="#F6D687"/>
<path d="M24.5159 7.97866C24.5093 7.99399 24.6188 8.12312 24.7589 8.26321L25.0128 8.52148L25.0719 8.42737C25.131 8.33106 25.2448 8.03995 25.2448 7.98304C25.2448 7.95678 25.1835 7.9524 24.8858 7.9524C24.6188 7.9524 24.5225 7.95897 24.5159 7.97866Z" fill="#F6D687"/>
<path d="M23.8035 8.14739C23.7729 8.20211 23.7926 8.25245 23.8473 8.26996C23.9064 8.28966 23.9589 8.24151 23.9502 8.17366C23.9414 8.09924 23.8385 8.07954 23.8035 8.14739Z" fill="#F6D687"/>
<path d="M23.3233 8.59396C23.1898 8.72967 23.0781 8.84568 23.0781 8.85443C23.0781 8.89821 23.5181 9.09082 23.6188 9.09082C23.6406 9.09082 23.6472 9.0164 23.6472 8.73186C23.6472 8.42543 23.6428 8.37071 23.6122 8.35976C23.5925 8.3532 23.5772 8.34663 23.575 8.34663C23.5728 8.34663 23.459 8.45826 23.3233 8.59396Z" fill="#F6D687"/>
<path d="M24.1359 8.36195C24.114 8.36852 24.1074 8.46483 24.1074 8.73186C24.1074 8.92885 24.1162 9.09082 24.1249 9.09082C24.2037 9.09082 24.532 8.9573 24.6481 8.87632C24.6831 8.85443 24.1753 8.34663 24.1359 8.36195Z" fill="#F6D687"/>
</svg>
