<svg width="17" height="17" viewBox="0 0 17 17" fill="none" xmlns="http://www.w3.org/2000/svg">
<path fill-rule="evenodd" clip-rule="evenodd" d="M8.5 0C13.1941 0 17 3.80591 17 8.5C17 13.1941 13.1941 17 8.5 17C3.80591 17 0 13.1941 0 8.5C0 3.80591 3.80591 0 8.5 0ZM7.32129 4.22233H8.36027C8.5498 4.22233 8.70614 4.37866 8.70614 4.5682V8.57194H12.3599C12.5508 8.57194 12.7057 8.72827 12.7057 8.91781V9.95679C12.7057 10.1477 12.5494 10.3027 12.3599 10.3027H6.97404V4.5682C6.97404 4.37728 7.13037 4.22233 7.32129 4.22233ZM8.5 1.92993C12.1288 1.92993 15.0701 4.87118 15.0701 8.5C15.0701 12.1288 12.1288 15.0701 8.5 15.0701C4.87118 15.0701 1.92993 12.1288 1.92993 8.5C1.92993 4.87256 4.87118 1.92993 8.5 1.92993Z" fill="url(#paint0_linear_345_61)"/>
<defs>
<linearGradient id="paint0_linear_345_61" x1="0" y1="8.5" x2="17" y2="8.5" gradientUnits="userSpaceOnUse">
<stop stop-color="#F7D788"/>
<stop offset="1" stop-color="#E3BC78"/>
</linearGradient>
</defs>
</svg>
