<svg width="30" height="30" viewBox="0 0 30 30" fill="none" xmlns="http://www.w3.org/2000/svg">
<path d="M4.91752 1.43834C4.31215 1.00565 3.55216 0.814758 2.94946 0.943236C2.46987 1.05042 1.91454 1.61169 1.81766 2.08761C1.71103 2.59708 1.76685 3.02116 1.99899 3.59226L2.21388 4.11066L13.6278 15.8884L25.0417 27.6661L25.4321 27.8507C25.9275 28.0914 26.5227 28.1821 26.9698 28.085C27.4734 27.9764 28.0062 27.4267 28.1113 26.907C28.2054 26.4457 28.1176 25.8315 27.8843 25.3203L27.7054 24.9175L16.4137 13.2486C10.1973 6.83402 5.0312 1.52075 4.91752 1.43834Z" fill="url(#paint0_linear_657_105)" fill-opacity="0.8"/>
<path d="M1.30747 25.0522C0.712345 26.0933 0.773415 27.1893 1.44407 27.7522C1.98658 28.1946 2.80557 28.2297 3.61251 27.8415L4.00249 27.657L15.4074 15.8886L26.8123 4.12023L26.9912 3.71781C27.2243 3.20708 27.3122 2.59347 27.2183 2.13264C27.1133 1.61348 26.5813 1.06444 26.0781 0.956144C25.6315 0.859224 25.0369 0.949951 24.5419 1.19052L24.1519 1.37506L12.8239 13.0467C2.63352 23.5444 1.47166 24.752 1.30747 25.0522Z" fill="url(#paint1_linear_657_105)" fill-opacity="0.8"/>
<defs>
<linearGradient id="paint0_linear_657_105" x1="13.6303" y1="15.8909" x2="16.3861" y2="13.2201" gradientUnits="userSpaceOnUse">
<stop stop-color="#F7D788"/>
<stop offset="1" stop-color="#E3BC78"/>
</linearGradient>
<linearGradient id="paint1_linear_657_105" x1="15.3998" y1="15.8965" x2="12.6439" y2="13.2257" gradientUnits="userSpaceOnUse">
<stop stop-color="#F7D788"/>
<stop offset="1" stop-color="#E3BC78"/>
</linearGradient>
</defs>
</svg>
