<svg width="56" height="45" viewBox="0 0 56 45" fill="none" xmlns="http://www.w3.org/2000/svg">
<path fill-rule="evenodd" clip-rule="evenodd" d="M25.3729 20.6163C27.9268 20.7781 30.4327 20.8163 32.9505 20.9552C35.8357 21.1104 35.8171 21.4843 37.5489 23.5266L46.5522 32.3834C47.2257 33.3269 47.0015 34.3907 46.398 35.1265L52.5522 35.0292C53.4334 35.0292 54.2348 35.1483 54.8514 35.5266C55.5117 35.93 55.9305 36.5904 55.9731 37.641C55.9775 37.6782 55.9775 37.7176 55.9731 37.7569L55.6834 40.1655C55.6407 40.9592 55.3106 41.6469 54.7694 42.1356C54.2785 42.5794 53.6181 42.855 52.8474 42.891V43.8422H53.4257V45H50.113V43.8422H50.6925V42.8845L43.6681 42.8473V43.8422H44.2464V45H40.9337V43.8422H41.5132V42.8353L41.265 42.8342C40.6418 42.8648 40.0974 42.6713 39.6524 42.3203C39.1331 41.9104 38.757 41.2861 38.5558 40.5601C38.3623 39.8637 38.3284 39.0678 38.4815 38.2817C38.6914 37.2026 39.2544 36.1312 40.2406 35.3451C40.3292 35.2686 40.4429 35.2216 40.5686 35.2205L43.0307 35.1811L35.4345 28.6268C33.7158 26.8098 34.0351 27.0558 31.4199 27.48C28.4472 27.9643 25.0777 28.7864 22.1739 28.0769C18.6196 27.2121 18.2512 24.9687 16.2275 22.3415C15.0002 20.9333 13.9657 19.3682 13.151 17.6873C12.7333 16.6246 12.2479 15.7303 12.0161 14.8863C11.6859 13.9133 11.9068 12.8244 12.5879 12.0547C13.2822 11.1964 13.8867 10.5787 14.4662 10.1972C14.9975 9.6385 15.8109 9.38048 16.608 9.59367L27.0697 12.4078C28.2319 12.7183 28.9228 13.9122 28.6123 15.0744C28.3018 16.2365 27.108 16.9264 25.9458 16.6159L22.8332 15.7784C23.8259 17.25 24.671 18.8637 25.3729 20.6163ZM27.3791 43.5754H28.0908V41.9377L19.4483 41.9093V43.5754H20.1601V45H16.0854V43.5754H16.7971V41.9005L14.4378 41.8929C13.7873 41.9246 13.2341 41.602 12.7902 41.039C12.7563 40.9964 12.7235 40.9526 12.6918 40.9078C12.4965 41.022 12.2942 41.1239 12.0861 41.2128L12.015 41.2445C11.7472 41.3396 11.452 41.1997 11.3558 40.9319L1.77743 14.1702C1.43632 14.0467 1.17393 13.7766 0.973855 13.3961L0.968388 13.3863C0.0248756 11.4785 -0.212369 9.90089 0.183403 8.58893C0.585735 7.25402 1.62218 6.23398 3.22167 5.45665C3.34463 5.39731 3.48611 5.38919 3.61504 5.43409C3.74398 5.47898 3.84983 5.57321 3.90935 5.69608C4.68559 7.36445 5.65971 9.0186 6.46656 10.6837C6.64149 11.0499 6.7213 11.402 6.67101 11.7354C6.65461 11.8459 6.624 11.9508 6.58136 12.0514C6.66107 12.0481 6.74044 12.0635 6.81315 12.0963C6.88585 12.1292 6.94987 12.1785 7.00009 12.2405C7.63311 13.0222 8.36671 13.8914 9.12327 14.789C11.6586 17.7956 14.4717 21.1334 15.9957 24.1859C16.2362 24.6669 16.6921 25.6837 17.0114 26.6108C17.2355 27.2591 17.3951 27.8823 17.3809 28.2956L17.3776 28.3951C17.3711 28.699 17.3536 29.4807 17.2585 30.5204L32.4367 28.2803C32.6018 28.2573 32.7679 28.242 32.9341 28.2376H32.9374C33.6644 28.2147 34.3346 28.3743 34.8605 28.7416C35.4061 29.1232 35.7832 29.7125 35.8958 30.5303C35.9122 30.6505 35.9232 30.7795 35.9276 30.9173C35.945 33.6002 35.7155 36.4811 35.6389 39.188C35.605 39.9971 35.2727 40.6979 34.7238 41.1931C34.1925 41.6742 33.4633 41.9563 32.6105 41.953L30.7421 41.9464V43.5754H31.4538V45H27.3791V43.5754ZM10.5817 0.00985832C8.3361 0.14324 6.40315 1.77225 5.94397 4.04411C5.39404 6.77188 7.15862 9.43077 9.88639 9.98179C12.6152 10.5328 15.2741 8.76714 15.8252 6.03937C15.8569 5.88413 15.8809 5.72451 15.8973 5.56816C16.1652 2.98252 14.4236 0.615543 11.8751 0.100602C11.452 0.0153248 11.0693 -0.0185673 10.5817 0.00985832Z" fill="url(#paint0_linear_560_839)"/>
<defs>
<linearGradient id="paint0_linear_560_839" x1="27.9882" y1="0" x2="27.9882" y2="45" gradientUnits="userSpaceOnUse">
<stop stop-color="#FEEDC4"/>
<stop offset="1" stop-color="#F7D788"/>
</linearGradient>
</defs>
</svg>
