<svg width="40" height="45" viewBox="0 0 40 45" fill="none" xmlns="http://www.w3.org/2000/svg">
<path d="M7.15867 0.139992C5.32076 0.468191 3.72665 1.35901 2.33884 2.82184C-0.408648 5.73812 -0.774355 10.1735 1.44802 13.5492C2.57327 15.2465 4.19551 16.4843 6.10843 17.0844C10.3844 18.4347 15.0636 16.2967 16.7889 12.1989C17.3234 10.9237 17.436 10.3141 17.4453 8.75754C17.4453 7.17281 17.2766 6.34763 16.7045 5.0911C15.0354 1.49029 11.0783 -0.572666 7.15867 0.139992ZM13.4319 5.05359C13.6007 5.14736 13.7977 5.3349 13.882 5.46618C14.0508 5.71936 14.0883 6.45078 13.9477 6.70396C13.9008 6.78835 12.6255 8.1199 11.1252 9.65774C8.18077 12.6678 8.07762 12.7522 7.29932 12.6022C6.99926 12.5459 6.69919 12.3021 5.33013 10.933C4.43931 10.0516 3.65163 9.19827 3.56724 9.02948C3.0515 7.94174 4.22364 6.78835 5.28325 7.3416C5.42391 7.41662 5.97715 7.92298 6.52103 8.46685C7.05552 9.01073 7.54313 9.46083 7.59939 9.46083C7.64628 9.46083 8.62149 8.50436 9.75612 7.33222C10.8908 6.16947 11.941 5.13798 12.1004 5.04421C12.4661 4.81916 13.0569 4.81916 13.4319 5.05359Z" fill="url(#paint0_linear_560_856)"/>
<path d="M29.9178 0.918582C29.2145 1.2374 28.7456 2.06259 28.8863 2.73774C28.9238 2.90653 29.4489 4.89447 30.0584 7.16373C31.1462 11.2334 31.1743 11.299 31.7182 12.2367L32.262 13.1932L33.4811 13.2307C34.4281 13.2588 34.7751 13.3057 35.0095 13.4276C35.1877 13.5214 35.3471 13.5777 35.3659 13.5589C35.4315 13.5026 32.3371 1.99695 32.1776 1.69688C31.7369 0.862319 30.7711 0.524744 29.9178 0.918582Z" fill="url(#paint1_linear_560_856)"/>
<path d="M37.4182 4.48114C36.9775 4.68744 36.5836 5.08128 36.443 5.45636C36.3774 5.62515 36.3398 6.7504 36.3398 8.45703V11.1951L36.9962 13.6613L37.662 16.1369L38.7122 17.5247C39.2936 18.2936 39.7906 18.9219 39.8375 18.9219C39.9406 18.9312 39.9125 6.19715 39.8 5.70954C39.5468 4.60304 38.4216 4.02166 37.4182 4.48114Z" fill="url(#paint2_linear_560_856)"/>
<path d="M24.3831 4.86601C23.8861 4.97854 23.5017 5.23172 23.2297 5.63493C23.0234 5.95375 22.9766 6.13192 22.9766 6.5914C22.9766 7.1634 22.9859 7.17278 24.6551 10.0703C25.574 11.6644 26.3804 13.0335 26.4367 13.0991C26.5211 13.1835 27.0275 13.2116 28.5372 13.1929L30.5251 13.1647L28.359 9.4139C26.3242 5.88811 25.9116 5.25047 25.5459 5.04418C25.2646 4.90352 24.6738 4.80975 24.3831 4.86601Z" fill="url(#paint3_linear_560_856)"/>
<path d="M22.6019 14.8901C22.1236 15.1058 22.0205 15.2277 21.4297 16.3061C21.1578 16.7937 20.6045 17.7502 20.2013 18.4347C19.7887 19.1098 19.3949 19.8225 19.3199 20.0007C19.1042 20.5164 19.1417 21.2853 19.3949 21.6604C20.0044 22.57 21.336 22.7575 22.0674 22.0355C22.2174 21.8855 22.7331 21.0697 23.2114 20.2257C23.6896 19.3912 24.1678 18.6035 24.271 18.4816C24.4585 18.2753 24.4773 18.2753 27.3373 18.2753C30.1973 18.2753 30.2161 18.2753 30.4036 18.4816C30.7881 18.9035 33.3668 22.5325 33.4512 22.7669C33.5262 22.9638 33.3105 23.6859 32.3165 26.6397C31.0225 30.4936 30.8068 30.9625 30.0473 31.6283C29.1565 32.3972 28.0124 32.7629 26.6809 32.6973C25.2462 32.6129 24.4492 32.2096 22.9207 30.7656L22.0205 29.9123L21.9642 28.5244C21.8986 26.9116 21.7204 26.1989 21.1672 25.3456C20.4264 24.211 19.3293 23.4327 18.0258 23.1139L17.7539 23.0482L17.8008 27.3898C17.8383 31.6658 17.8383 31.7502 18.0821 32.8754C18.3353 34.0288 18.6822 35.0978 19.0011 35.7354C19.2824 36.2793 19.7043 36.7107 20.8952 37.6577L22.0017 38.5392L30.2161 38.5298C34.7358 38.5298 38.4679 38.5017 38.5054 38.4829C38.6086 38.4173 39.0212 37.1045 39.2368 36.1855C39.5369 34.8634 39.7151 33.5506 39.7995 31.994C39.9026 30.006 39.8182 21.5666 39.6869 21.3228C39.5369 21.0228 35.1672 15.3403 34.9234 15.1152C34.8015 15.0027 34.5764 14.8714 34.4358 14.8151C34.2576 14.7495 32.3165 14.712 28.5751 14.712C23.3427 14.712 22.9488 14.7307 22.6019 14.8901Z" fill="url(#paint4_linear_560_856)"/>
<path d="M22.5849 40.0958C22.4724 40.1145 22.2661 40.2646 22.1348 40.4146C21.9004 40.6959 21.9004 40.7147 21.9004 42.4776C21.9004 44.4186 21.9567 44.6812 22.4161 44.8875C22.5943 44.9719 24.7041 45 30.8555 45H39.0605L39.3605 44.7281L39.67 44.4561L39.6981 42.6745C39.7262 41.1648 39.7075 40.8366 39.5762 40.5928C39.2761 40.0114 39.5762 40.0301 30.7899 40.0395C26.392 40.0489 22.6974 40.077 22.5849 40.0958Z" fill="url(#paint5_linear_560_856)"/>
<defs>
<linearGradient id="paint0_linear_560_856" x1="8.72267" y1="1.90735e-05" x2="8.72267" y2="17.4883" gradientUnits="userSpaceOnUse">
<stop stop-color="#FEEDC4"/>
<stop offset="1" stop-color="#F7D788"/>
</linearGradient>
<linearGradient id="paint1_linear_560_856" x1="32.1141" y1="0.754633" x2="32.1141" y2="13.5625" gradientUnits="userSpaceOnUse">
<stop stop-color="#FEEDC4"/>
<stop offset="1" stop-color="#F7D788"/>
</linearGradient>
<linearGradient id="paint2_linear_560_856" x1="38.1207" y1="4.32296" x2="38.1207" y2="18.9219" gradientUnits="userSpaceOnUse">
<stop stop-color="#FEEDC4"/>
<stop offset="1" stop-color="#F7D788"/>
</linearGradient>
<linearGradient id="paint3_linear_560_856" x1="26.7508" y1="4.84943" x2="26.7508" y2="13.1984" gradientUnits="userSpaceOnUse">
<stop stop-color="#FEEDC4"/>
<stop offset="1" stop-color="#F7D788"/>
</linearGradient>
<linearGradient id="paint4_linear_560_856" x1="28.7997" y1="14.712" x2="28.7997" y2="38.5392" gradientUnits="userSpaceOnUse">
<stop stop-color="#FEEDC4"/>
<stop offset="1" stop-color="#F7D788"/>
</linearGradient>
<linearGradient id="paint5_linear_560_856" x1="30.8049" y1="40.0367" x2="30.8049" y2="45" gradientUnits="userSpaceOnUse">
<stop stop-color="#FEEDC4"/>
<stop offset="1" stop-color="#F7D788"/>
</linearGradient>
</defs>
</svg>
