<svg width="16" height="17" viewBox="0 0 16 17" fill="none" xmlns="http://www.w3.org/2000/svg">
<path d="M3.53463 0H3.1077C3.05323 0 3.00156 0.0114466 2.95152 0.0277114C2.70145 0.108812 2.5166 0.375789 2.5166 0.696043V0.989923V1.74214V2.1335C2.5166 2.20622 2.52872 2.27492 2.54629 2.34071C2.62154 2.62328 2.84298 2.82954 3.1077 2.82954H3.53463C3.86115 2.82954 4.12573 2.51795 4.12573 2.1335V1.74214V0.989923V0.696043C4.12573 0.311593 3.86115 0 3.53463 0Z" fill="url(#paint0_linear_334_112)"/>
<path d="M11.937 0H11.51C11.1835 0 10.9189 0.311593 10.9189 0.696043V0.989923V1.74214V2.1335C10.9189 2.51795 11.1835 2.82954 11.51 2.82954H11.937C12.2635 2.82954 12.5281 2.51795 12.5281 2.1335V1.74214V0.989923V0.696043C12.5279 0.311593 12.2634 0 11.937 0Z" fill="url(#paint1_linear_334_112)"/>
<path d="M14.118 1.74219H13.0609V2.13354C13.0609 2.81107 12.5568 3.36223 11.9372 3.36223H11.5103C10.8907 3.36223 10.3865 2.81107 10.3865 2.13354V1.74219H4.65796V2.13354C4.65796 2.81107 4.15381 3.36223 3.53422 3.36223H3.1073C2.48767 3.36223 1.98355 2.81107 1.98355 2.13354V1.74219H1.0625C0.4758 1.74219 0 2.18827 0 2.73824V16.004C0 16.555 0.475772 17 1.0625 17H14.1178C14.7051 17 15.1803 16.5549 15.1803 16.004V2.73838C15.1805 2.18841 14.7052 1.74219 14.118 1.74219ZM13.7885 15.5379L1.35318 15.5331V4.83818H13.7885V15.5379Z" fill="url(#paint2_linear_334_112)"/>
<path d="M8.92169 7.41565H12.1921C12.476 7.41565 12.7056 7.13216 12.7056 6.7818C12.7056 6.43144 12.4759 6.14795 12.1921 6.14795H8.92169C8.6378 6.14795 8.4082 6.43144 8.4082 6.7818C8.4082 7.13202 8.63778 7.41565 8.92169 7.41565Z" fill="url(#paint3_linear_334_112)"/>
<path d="M8.92169 9.70518H12.1921C12.476 9.70518 12.7056 9.42169 12.7056 9.07132C12.7056 8.72099 12.4759 8.4375 12.1921 8.4375H8.92169C8.6378 8.4375 8.4082 8.72099 8.4082 9.07132C8.4082 9.42169 8.63778 9.70518 8.92169 9.70518Z" fill="url(#paint4_linear_334_112)"/>
<path d="M8.92169 11.9948H12.1921C12.476 11.9948 12.7056 11.7112 12.7056 11.3609C12.7056 11.0106 12.4759 10.7271 12.1921 10.7271H8.92169C8.6378 10.7271 8.4082 11.0106 8.4082 11.3609C8.4082 11.7112 8.63778 11.9948 8.92169 11.9948Z" fill="url(#paint5_linear_334_112)"/>
<path d="M8.92169 14.2843H12.1921C12.476 14.2843 12.7056 14.0008 12.7056 13.6505C12.7056 13.3001 12.4759 13.0166 12.1921 13.0166H8.92169C8.6378 13.0166 8.4082 13.3001 8.4082 13.6505C8.4082 14.0008 8.63778 14.2843 8.92169 14.2843Z" fill="url(#paint6_linear_334_112)"/>
<path d="M3.12969 7.41565H6.40014C6.68402 7.41565 6.91359 7.13216 6.91359 6.7818C6.91359 6.43144 6.68388 6.14795 6.40014 6.14795H3.12969C2.84578 6.14795 2.61621 6.43144 2.61621 6.7818C2.61624 7.13202 2.84578 7.41565 3.12969 7.41565Z" fill="url(#paint7_linear_334_112)"/>
<path d="M3.12969 9.70518H6.40014C6.68402 9.70518 6.91359 9.42169 6.91359 9.07132C6.91359 8.72099 6.68388 8.4375 6.40014 8.4375H3.12969C2.84578 8.4375 2.61621 8.72099 2.61621 9.07132C2.61624 9.42169 2.84578 9.70518 3.12969 9.70518Z" fill="url(#paint8_linear_334_112)"/>
<path d="M3.12969 11.9948H6.40014C6.68402 11.9948 6.91359 11.7112 6.91359 11.3609C6.91359 11.0106 6.68388 10.7271 6.40014 10.7271H3.12969C2.84578 10.7271 2.61621 11.0106 2.61621 11.3609C2.61621 11.7112 2.84578 11.9948 3.12969 11.9948Z" fill="url(#paint9_linear_334_112)"/>
<path d="M3.12969 14.2843H6.40014C6.68402 14.2843 6.91359 14.0008 6.91359 13.6505C6.91359 13.3001 6.68388 13.0166 6.40014 13.0166H3.12969C2.84578 13.0166 2.61621 13.3001 2.61621 13.6505C2.61624 14.0008 2.84578 14.2843 3.12969 14.2843Z" fill="url(#paint10_linear_334_112)"/>
<defs>
<linearGradient id="paint0_linear_334_112" x1="2.5166" y1="1.41477" x2="4.12573" y2="1.41477" gradientUnits="userSpaceOnUse">
<stop stop-color="#F7D788"/>
<stop offset="1" stop-color="#E3BC78"/>
</linearGradient>
<linearGradient id="paint1_linear_334_112" x1="10.9189" y1="1.41477" x2="12.5281" y2="1.41477" gradientUnits="userSpaceOnUse">
<stop stop-color="#F7D788"/>
<stop offset="1" stop-color="#E3BC78"/>
</linearGradient>
<linearGradient id="paint2_linear_334_112" x1="0" y1="9.37112" x2="15.1803" y2="9.37112" gradientUnits="userSpaceOnUse">
<stop stop-color="#F7D788"/>
<stop offset="1" stop-color="#E3BC78"/>
</linearGradient>
<linearGradient id="paint3_linear_334_112" x1="8.4082" y1="6.7818" x2="12.7056" y2="6.7818" gradientUnits="userSpaceOnUse">
<stop stop-color="#F7D788"/>
<stop offset="1" stop-color="#E3BC78"/>
</linearGradient>
<linearGradient id="paint4_linear_334_112" x1="8.4082" y1="9.07134" x2="12.7056" y2="9.07134" gradientUnits="userSpaceOnUse">
<stop stop-color="#F7D788"/>
<stop offset="1" stop-color="#E3BC78"/>
</linearGradient>
<linearGradient id="paint5_linear_334_112" x1="8.4082" y1="11.3609" x2="12.7056" y2="11.3609" gradientUnits="userSpaceOnUse">
<stop stop-color="#F7D788"/>
<stop offset="1" stop-color="#E3BC78"/>
</linearGradient>
<linearGradient id="paint6_linear_334_112" x1="8.4082" y1="13.6505" x2="12.7056" y2="13.6505" gradientUnits="userSpaceOnUse">
<stop stop-color="#F7D788"/>
<stop offset="1" stop-color="#E3BC78"/>
</linearGradient>
<linearGradient id="paint7_linear_334_112" x1="2.61621" y1="6.7818" x2="6.91359" y2="6.7818" gradientUnits="userSpaceOnUse">
<stop stop-color="#F7D788"/>
<stop offset="1" stop-color="#E3BC78"/>
</linearGradient>
<linearGradient id="paint8_linear_334_112" x1="2.61621" y1="9.07134" x2="6.91359" y2="9.07134" gradientUnits="userSpaceOnUse">
<stop stop-color="#F7D788"/>
<stop offset="1" stop-color="#E3BC78"/>
</linearGradient>
<linearGradient id="paint9_linear_334_112" x1="2.61621" y1="11.3609" x2="6.91359" y2="11.3609" gradientUnits="userSpaceOnUse">
<stop stop-color="#F7D788"/>
<stop offset="1" stop-color="#E3BC78"/>
</linearGradient>
<linearGradient id="paint10_linear_334_112" x1="2.61621" y1="13.6505" x2="6.91359" y2="13.6505" gradientUnits="userSpaceOnUse">
<stop stop-color="#F7D788"/>
<stop offset="1" stop-color="#E3BC78"/>
</linearGradient>
</defs>
</svg>
