<svg width="65" height="94" viewBox="0 0 65 94" fill="none" xmlns="http://www.w3.org/2000/svg">
<path d="M64.0928 72.8667L48.5035 49.0257C47.376 47.2985 45.4521 46.523 43.5241 46.523C43.1251 46.523 42.2993 46.5325 41.4066 46.5449C41.337 46.4286 41.2644 46.3132 41.1469 46.2346L37.2204 43.6384C36.7675 43.3391 36.1792 43.3549 35.7448 43.6731L32.4974 46.0592L29.2478 43.6731C28.81 43.3549 28.2252 43.3391 27.7686 43.6384L23.8492 46.2346C23.7384 46.3065 23.6681 46.4076 23.6035 46.5133C22.6784 46.5192 21.8164 46.5241 21.4533 46.5241C19.5341 46.5241 17.6189 47.3099 16.4984 49.0257L0.908844 72.8667C-0.748598 75.3976 -0.0777657 78.782 2.42181 80.4958L5.88232 82.8706C7.9684 77.9248 11.4138 73.6959 15.7407 70.6084L16.6331 69.2421V69.9787C19.7686 67.9163 23.3282 66.4539 27.1497 65.7372C26.0142 63.2282 25.0613 60.2395 24.3625 57.4224C23.5484 54.1351 23.0709 51.0888 23.0709 49.3635C23.0709 48.7242 23.1538 48.1085 23.2797 47.5079L26.1156 56.8507C26.2623 57.34 26.6873 57.6933 27.1965 57.753C27.2478 57.7588 27.2978 57.7618 27.3467 57.7618C27.7998 57.7618 28.2285 57.5233 28.4615 57.1246L30.6723 53.3335L31.2943 53.9507C29.8058 55.911 29.221 61.4285 28.994 65.4565C30.1425 65.3165 31.306 65.2234 32.4916 65.2234C33.6798 65.2234 34.8469 65.3182 35.9989 65.4581C35.7717 61.4302 35.187 55.9127 33.695 53.9507L34.3169 53.3297L36.5347 57.1245C36.7677 57.5232 37.1903 57.7616 37.647 57.7616C37.6958 57.7616 37.747 57.7586 37.7962 57.7528C38.305 57.6929 38.7301 57.3396 38.8806 56.8505L41.7147 47.5274C41.8362 48.1218 41.9161 48.7317 41.9161 49.3633C41.9161 52.5693 40.3017 60.3022 37.8393 65.737C41.6679 66.4558 45.2333 67.9218 48.369 69.9893V69.2455L49.2763 70.6298C53.5883 73.7188 57.0243 77.9407 59.1046 82.8781L62.5803 80.4958C65.0791 78.782 65.7467 75.3976 64.0928 72.8667ZM27.723 53.286L26.0726 47.8435L28.4463 46.2716L30.8074 48.0053L27.723 53.286ZM37.2693 53.286L34.1884 48.0051L36.5471 46.2714L38.9233 47.8433L37.2693 53.286Z" fill="url(#paint0_linear_564_450)"/>
<path d="M24.418 81.5269L27.2356 85.218C28.7974 84.2806 30.6076 83.7669 32.491 83.7669C34.378 83.7669 36.1916 84.2804 37.7534 85.2195L40.571 81.5257C38.3742 79.4657 35.5228 78.3359 32.4946 78.3359C29.4648 78.3359 26.61 79.4674 24.418 81.5269Z" fill="url(#paint1_linear_564_450)"/>
<path d="M19.4316 31.1367C19.5273 35.9929 22.2982 40.1535 26.3354 42.3139C28.1791 43.3021 30.2583 43.9133 32.5003 43.9133C34.7389 43.9133 36.8122 43.3032 38.6538 42.317C42.6897 40.1592 45.4711 35.9993 45.5633 31.1415C42.2333 33.445 37.5355 34.9421 32.5003 34.9421C27.4652 34.9421 22.7663 33.445 19.4316 31.1367Z" fill="url(#paint2_linear_564_450)"/>
<path d="M19.0579 19.606L19.0148 23.4604C19.0219 26.5109 25.0552 30.4844 32.5004 30.4844C39.9455 30.4844 45.9734 26.5109 45.9767 23.4604L45.937 19.6079C47.8961 19.1 49.4163 18.3456 50.3899 17.2612C51.1527 16.4154 51.5907 15.3723 51.5907 14.0596C51.5911 8.11248 43.0358 0.50415 32.5006 0.50415C21.956 0.50415 13.4102 8.11248 13.4102 14.0596C13.4102 15.3723 13.8457 16.4137 14.605 17.2612C15.579 18.3454 17.1012 19.0999 19.0579 19.606Z" fill="url(#paint3_linear_564_450)"/>
<path d="M32.4923 68.5928C18.4558 68.5928 7.03516 79.9634 7.03516 93.938H13.4484C13.4484 93.9288 13.4484 93.9162 13.4484 93.9073V93.9013C13.6569 92.6505 14.7343 91.7392 15.9993 91.7392C16.0214 91.7392 16.0459 91.7411 16.0702 91.7411L25.9779 91.9969C25.7915 92.6163 25.6621 93.2596 25.6621 93.9382H39.3283C39.3283 93.2596 39.2001 92.6163 39.0102 91.9969L48.9211 91.7411C48.942 91.7411 48.9631 91.7392 48.9888 91.7392C50.2524 91.7392 51.3347 92.6505 51.5418 93.9013V93.9073C51.5418 93.9162 51.5418 93.9288 51.5418 93.938H57.9493C57.9495 79.9634 46.5325 68.5928 32.4923 68.5928ZM43.4818 83.2789L38.2006 90.207C36.9764 88.359 34.881 87.1349 32.4921 87.1349C30.1091 87.1349 28.0113 88.3579 26.7894 90.2058L21.5095 83.281C20.6091 82.0994 20.722 80.4342 21.7762 79.3848C24.737 76.4388 28.6147 74.9655 32.4956 74.9655C36.3755 74.9655 40.2528 76.4388 43.2184 79.3873C44.2715 80.4359 44.3824 82.0979 43.4818 83.2789Z" fill="url(#paint4_linear_564_450)"/>
<defs>
<linearGradient id="paint0_linear_564_450" x1="32.5" y1="43.4238" x2="32.5" y2="82.8781" gradientUnits="userSpaceOnUse">
<stop stop-color="#FEEDC4"/>
<stop offset="1" stop-color="#F7D788"/>
</linearGradient>
<linearGradient id="paint1_linear_564_450" x1="32.4945" y1="78.3359" x2="32.4945" y2="85.2195" gradientUnits="userSpaceOnUse">
<stop stop-color="#FEEDC4"/>
<stop offset="1" stop-color="#F7D788"/>
</linearGradient>
<linearGradient id="paint2_linear_564_450" x1="32.4975" y1="31.1367" x2="32.4975" y2="43.9133" gradientUnits="userSpaceOnUse">
<stop stop-color="#FEEDC4"/>
<stop offset="1" stop-color="#F7D788"/>
</linearGradient>
<linearGradient id="paint3_linear_564_450" x1="32.5004" y1="0.50415" x2="32.5004" y2="30.4844" gradientUnits="userSpaceOnUse">
<stop stop-color="#FEEDC4"/>
<stop offset="1" stop-color="#F7D788"/>
</linearGradient>
<linearGradient id="paint4_linear_564_450" x1="32.4922" y1="68.5928" x2="32.4922" y2="93.9382" gradientUnits="userSpaceOnUse">
<stop stop-color="#FEEDC4"/>
<stop offset="1" stop-color="#F7D788"/>
</linearGradient>
</defs>
</svg>
