<svg width="17" height="18" viewBox="0 0 17 18" fill="none" xmlns="http://www.w3.org/2000/svg">
<path d="M11.0425 9.2947C11.237 9.23708 11.698 9.10742 11.9141 8.47354L12.3535 7.17697L12.5336 7.23459C12.6128 7.26341 12.7065 7.22019 12.7281 7.14095L12.9658 6.44224C12.9946 6.36301 12.9514 6.26937 12.8721 6.24776L7.15282 4.3029C7.07358 4.27409 6.97994 4.31731 6.95833 4.39654L6.72063 5.09525C6.69181 5.17449 6.73503 5.26813 6.81427 5.28974L6.99435 5.34736L6.54775 6.66554C6.33165 7.28502 6.47572 7.50111 6.74224 7.81805L7.90195 9.20106L7.77229 9.58283C7.32569 9.67647 6.17319 9.92858 6.01472 9.979C5.82023 10.0366 5.35923 10.1663 5.14313 10.8002L4.76136 11.9239L4.58128 11.8662C4.50205 11.8374 4.40841 11.8806 4.3868 11.9599L4.14909 12.6586C4.12028 12.7378 4.1635 12.8315 4.24273 12.8531L9.96206 14.7979C10.0413 14.8267 10.1349 14.7835 10.1565 14.7043L10.3942 14.0056C10.4231 13.9263 10.3798 13.8327 10.3006 13.8111L10.1205 13.7535L10.5095 12.6154C10.7256 11.9959 10.5815 11.7798 10.315 11.4629L9.1553 10.0798L9.28496 9.69808C9.73155 9.59724 10.8913 9.34512 11.0425 9.2947ZM8.62947 10.3103L9.89002 11.8158C9.98366 11.9311 10.0413 11.9959 10.0485 12.0535C10.0629 12.1255 10.0413 12.248 9.98366 12.4281L9.59469 13.5662L5.2944 12.1039L5.67617 10.9874C5.79862 10.6345 6.01471 10.5697 6.17318 10.5264C6.29564 10.4904 7.36171 10.2599 8.04601 10.1087C8.13965 10.0871 8.21889 10.015 8.2549 9.92858L8.4854 9.25148C8.51422 9.15784 8.49981 9.057 8.43498 8.97776L7.18163 7.4723L7.17443 7.4651C7.08078 7.34984 7.02316 7.28502 7.01596 7.22739C7.00155 7.15536 7.02316 7.0329 7.08078 6.85283L7.52738 5.53464L11.8277 6.99689L11.3883 8.29346C11.2658 8.64642 11.0497 8.71124 10.8913 8.75446C10.7688 8.79048 9.70274 9.02098 9.01844 9.17225C8.9248 9.19386 8.84556 9.26589 8.80955 9.35953L8.57905 10.0366C8.54303 10.1303 8.56464 10.2311 8.62947 10.3103Z" fill="#F6D687"/>
<path d="M12.0221 15.6623C11.8924 15.7343 11.77 15.7992 11.6403 15.864C11.6187 15.8784 11.5971 15.8856 11.5827 15.9C11.5611 15.9072 11.5395 15.9144 11.5179 15.9288C10.956 16.1881 10.3654 16.3754 9.76751 16.4835C9.7603 16.4835 9.7531 16.4835 9.7459 16.4907C9.60183 16.5195 9.45777 16.5339 9.31371 16.5555H9.3065C9.03999 16.5843 8.77347 16.5987 8.50695 16.5987C5.40238 16.5987 2.75882 14.6106 1.77918 11.8374C1.76478 11.7942 1.75037 11.751 1.73597 11.7078C1.49826 11.0019 1.37581 10.2455 1.37581 9.46037C1.37581 8.67522 1.50546 7.91889 1.74317 7.21298C1.75037 7.19857 1.75757 7.18417 1.75757 7.16976C1.77198 7.12654 1.78639 7.09053 1.80079 7.04731C1.808 7.0257 1.8152 7.01129 1.8224 6.98968C2.63636 4.79992 4.50199 3.11437 6.7998 2.54532H6.807C6.84302 2.53812 6.87183 2.53092 6.90785 2.52371C6.91505 2.52371 6.91505 2.52371 6.92225 2.51651C7.42647 2.40126 7.9451 2.34363 8.47814 2.33643L8.48534 3.07115C8.48534 3.30166 8.62941 3.36648 8.80228 3.21522L10.351 1.90424C10.5238 1.76018 10.5238 1.51527 10.351 1.3712L8.75906 0.0746333C8.58619 -0.0694302 8.44212 0.00260156 8.44212 0.2259L8.44932 0.960624C6.20193 0.97503 4.0914 1.85382 2.4923 3.45292C2.33383 3.61139 2.18977 3.76986 2.0385 3.93554C2.0385 3.93554 2.0385 3.93553 2.0385 3.94274C2.0313 3.94994 2.02409 3.95714 2.02409 3.96435C0.77074 5.4338 0.0648286 7.27061 0.0072032 9.21546C0.0072032 9.22987 0 9.24428 0 9.25868C0 9.32351 0 9.38834 0 9.45317C0 9.56122 2.73706e-08 9.66926 0.0072032 9.77731C0.0072032 9.79172 0.00720323 9.80612 0.0144064 9.81333C0.0864382 11.5853 0.698708 13.2636 1.77198 14.6539C1.77918 14.6611 1.77918 14.6611 1.78639 14.6683C1.89444 14.8051 2.00248 14.9348 2.11773 15.0644C2.12494 15.0716 2.13214 15.0788 2.13934 15.0861C2.25459 15.2157 2.37705 15.3454 2.4995 15.4678C3.76006 16.7284 5.35196 17.5423 7.07352 17.8377C7.08072 17.8377 7.08792 17.8377 7.08792 17.8377C7.09513 17.8377 7.09513 17.8377 7.10233 17.8377C7.56333 17.9169 8.03154 17.9529 8.50695 17.9529C9.7603 17.9529 10.9632 17.6864 12.0941 17.1606C12.1157 17.1462 12.1446 17.139 12.1662 17.1245C12.195 17.1173 12.2166 17.1029 12.2382 17.0957C12.3895 17.0237 12.5479 16.9373 12.6992 16.8508C13.0305 16.6635 13.1458 16.2458 12.9585 15.9216C12.7712 15.5975 12.3534 15.4822 12.0221 15.6623Z" fill="#F6D687"/>
<path d="M14.428 5.47696C14.5576 5.67144 14.7737 5.77949 14.997 5.77949C15.1267 5.77949 15.2635 5.74348 15.3788 5.66424C15.6957 5.45535 15.775 5.03036 15.5661 4.71342C15.4724 4.56936 15.3716 4.4325 15.2635 4.28843C15.033 3.9859 14.6081 3.92828 14.3055 4.15878C14.003 4.38928 13.9454 4.81427 14.1759 5.1168C14.2623 5.23925 14.3487 5.36171 14.428 5.47696Z" fill="#F6D687"/>
<path d="M15.2998 7.27071C15.343 7.40757 15.3862 7.55163 15.4222 7.68849C15.5014 7.99823 15.7824 8.19992 16.0849 8.19992C16.1425 8.19992 16.2002 8.19271 16.2506 8.17831C16.6179 8.08466 16.834 7.7101 16.7404 7.34994C16.6972 7.18427 16.654 7.01859 16.5963 6.85292C16.4811 6.49276 16.0993 6.29828 15.7392 6.41353C15.379 6.52878 15.1845 6.91775 15.2998 7.27071Z" fill="#F6D687"/>
<path d="M14.8603 14.0558C14.5722 13.8109 14.1472 13.8397 13.8951 14.1278C13.8015 14.2359 13.7006 14.3439 13.5998 14.452C13.3332 14.7185 13.3404 15.1507 13.6142 15.4172C13.751 15.5469 13.9167 15.6117 14.0896 15.6117C14.2697 15.6117 14.4425 15.5397 14.5794 15.41C14.7019 15.2875 14.8171 15.1579 14.9324 15.0282C15.1773 14.7401 15.1484 14.3079 14.8603 14.0558Z" fill="#F6D687"/>
<path d="M16.3438 9.01368C15.9692 8.99927 15.6523 9.3018 15.6379 9.67637C15.6307 9.82043 15.6235 9.9645 15.6091 10.1086C15.5731 10.4831 15.854 10.8145 16.2285 10.8505C16.2502 10.8505 16.2718 10.8577 16.2934 10.8577C16.6463 10.8577 16.9417 10.5912 16.9705 10.2382C16.9849 10.0653 16.9993 9.89247 16.9993 9.71959C17.0137 9.33782 16.7184 9.02088 16.3438 9.01368Z" fill="#F6D687"/>
<path d="M16.0413 11.6645C15.6884 11.5277 15.2922 11.7006 15.1553 12.0535C15.1049 12.1904 15.0473 12.32 14.9825 12.4569C14.824 12.8026 14.9753 13.206 15.3138 13.3645C15.4075 13.4077 15.5011 13.4293 15.6019 13.4293C15.8613 13.4293 16.1062 13.2853 16.2214 13.0331C16.2934 12.8747 16.3655 12.7162 16.4231 12.5577C16.56 12.1976 16.3871 11.8014 16.0413 11.6645Z" fill="#F6D687"/>
<path d="M13.7076 3.58255C13.9309 3.28002 13.8661 2.85503 13.5635 2.62453C13.4267 2.52369 13.2826 2.42284 13.1385 2.3292C12.8216 2.12751 12.3966 2.21395 12.1949 2.53089C11.9932 2.84783 12.0797 3.27282 12.3966 3.4745C12.5191 3.55374 12.6415 3.64018 12.7568 3.71941C12.8792 3.80585 13.0233 3.85627 13.1601 3.85627C13.369 3.86348 13.5779 3.76263 13.7076 3.58255Z" fill="#F6D687"/>
</svg>
