<svg width="25" height="25" viewBox="0 0 25 25" fill="none" xmlns="http://www.w3.org/2000/svg">
<path d="M12.4712 25C5.58266 25 0 19.4173 0 12.5287C0 9.22192 1.31357 6.04492 3.65049 3.708C8.49236 -1.19497 16.389 -1.24079 21.292 3.60108C26.195 8.44295 26.2408 16.3396 21.3989 21.2426C21.3607 21.2808 21.3302 21.3113 21.292 21.3495C18.9551 23.6941 15.7781 25.0153 12.4712 25ZM12.2421 19.3562C12.4865 19.3562 12.7233 19.3562 12.9677 19.3639C13.212 19.3715 13.4488 19.3715 13.6855 19.3715C15.9385 19.3715 18.0386 19.1882 18.9169 16.9277C19.2682 15.6523 19.398 14.3311 19.2911 13.0175C19.2911 12.7884 19.2911 12.5593 19.2911 12.3149C19.2911 12.0476 19.2911 11.7956 19.2911 11.5512C19.3064 9.20665 19.314 7.65633 18.1074 6.44968C17.0076 5.34995 15.549 5.25831 13.7543 5.25831C13.5252 5.25831 13.2884 5.25831 13.044 5.25831C12.7844 5.25831 12.5171 5.25831 12.2421 5.25831C12.0054 5.25831 11.7763 5.25831 11.5472 5.25831C11.3181 5.25831 11.0889 5.25831 10.8675 5.25831C8.48473 5.25831 6.44564 5.4416 5.56739 7.69452C5.21608 8.9699 5.08625 10.2987 5.19317 11.6199C5.19317 11.8414 5.19317 12.0782 5.19317 12.3149C5.19317 12.5058 5.19317 12.6968 5.19317 12.8801V12.8953C5.09389 14.2547 5.22372 15.6141 5.56739 16.9277C6.44564 19.1806 8.49236 19.3639 10.8751 19.3639C11.0966 19.3639 11.3257 19.3639 11.5548 19.3639C11.7763 19.3639 12.013 19.3562 12.2421 19.3562ZM13.8459 18.0961C13.6015 18.0961 13.3495 18.0961 13.0822 18.0885C12.8149 18.0809 12.5323 18.0809 12.2498 18.0809C6.63657 18.0809 6.47619 17.9205 6.47619 12.2996C6.47619 9.41285 6.59075 8.01527 7.28572 7.28212C7.98068 6.54897 9.17969 6.52605 11.6235 6.52605H11.7839C12.1276 6.52605 12.4483 6.52606 12.7538 6.51842C13.0975 6.51842 13.4259 6.51078 13.7314 6.51078C15.5184 6.51078 16.5418 6.63297 17.1833 7.29739C18.1379 8.29021 18.199 10.5202 17.9928 15.1482C17.8553 17.8823 16.1141 18.0961 13.8459 18.0961ZM12.2421 8.68733C10.2412 8.68733 8.62219 10.3064 8.62219 12.3073C8.62219 14.3082 10.2412 15.9272 12.2421 15.9272C14.243 15.9272 15.8621 14.3082 15.8621 12.3073C15.8621 10.314 14.243 8.68733 12.2421 8.68733ZM16.0072 7.70216C15.5413 7.70216 15.1595 8.08401 15.1595 8.54986C15.1595 9.01572 15.5413 9.39757 16.0072 9.39757C16.473 9.39757 16.8549 9.01572 16.8549 8.54986C16.8549 8.07637 16.473 7.70216 16.0072 7.70216ZM12.2421 14.6595C11.0049 14.7053 9.95867 13.743 9.91285 12.5058C9.91285 12.4371 9.91285 12.376 9.91285 12.3073C9.90521 11.7192 10.1114 11.1388 10.4933 10.6959C10.9362 10.2071 11.5777 9.9398 12.2421 9.96271C13.4793 9.91689 14.5256 10.8792 14.5714 12.1164C14.5714 12.1851 14.5714 12.2462 14.5714 12.3149C14.5791 12.903 14.3729 13.4834 13.991 13.9263C13.5481 14.4151 12.9066 14.6824 12.2421 14.6595Z" fill="url(#paint0_linear_560_792)"/>
<defs>
<linearGradient id="paint0_linear_560_792" x1="20.8884" y1="1.35771" x2="3.81246" y2="24.0338" gradientUnits="userSpaceOnUse">
<stop stop-color="#7D4292"/>
<stop offset="0.551" stop-color="#EC663A"/>
<stop offset="1" stop-color="#FBBD3F"/>
</linearGradient>
</defs>
</svg>
