<svg width="185" height="68" viewBox="0 0 185 68" fill="none" xmlns="http://www.w3.org/2000/svg">
<path d="M1.02988 66.8975C0.824811 66.8975 0.599804 66.8349 0.414671 66.6925C0.0244689 66.4048 -0.117941 65.8722 0.107066 65.4222L6.93133 51.3635C7.11647 51.016 7.46395 50.791 7.85415 50.791C8.24435 50.791 8.61177 51.016 8.77696 51.3635L15.644 65.4022C15.8889 65.895 15.6838 66.5102 15.174 66.7551C14.6613 67.0229 14.0461 66.795 13.8012 66.3051L12.2033 63.0041C11.1381 62.6965 10.0102 62.6566 8.79975 62.8816C7.67186 63.0867 6.5041 63.4968 5.29362 64.1319C3.20305 65.2399 1.74762 66.5928 1.72769 66.6127C1.54255 66.7978 1.27767 66.9004 1.02988 66.9004V66.8975ZM7.85415 54.149L3.73566 62.6537C3.92079 62.5512 4.10593 62.4487 4.311 62.3461C5.68383 61.6084 7.07659 61.1157 8.40954 60.8708C9.33236 60.7056 10.2124 60.6458 11.0726 60.7284L7.85415 54.149Z" fill="#F7D788"/>
<path d="M32.7176 66.8183C32.165 66.8183 31.6922 66.3455 31.6922 65.7929V54.8673L26.6509 61.7741C26.4658 62.0419 26.1582 62.1843 25.8307 62.1843C25.5031 62.1843 25.1955 62.0419 24.9904 61.7741L19.9491 54.8673V65.7929C19.9491 66.3455 19.4991 66.8183 18.9238 66.8183C18.3485 66.8183 17.8984 66.3455 17.8984 65.7929V51.7314C17.8984 51.2814 18.1861 50.8912 18.6162 50.7488C19.0263 50.6064 19.4963 50.7687 19.764 51.119L25.8307 59.4415L31.8973 51.119C32.165 50.7716 32.615 50.6064 33.0451 50.7488C33.4553 50.8912 33.7429 51.2814 33.7429 51.7314V65.7929C33.7429 66.3455 33.2929 66.8183 32.7176 66.8183Z" fill="#F7D788"/>
<path d="M36.9205 66.8975C36.7154 66.8975 36.4904 66.8349 36.3053 66.6925C35.9151 66.4048 35.7727 65.8722 35.9977 65.4222L42.822 51.3635C43.0071 51.016 43.3546 50.791 43.7448 50.791C44.135 50.791 44.5024 51.016 44.6676 51.3635L51.5346 65.4022C51.7795 65.895 51.5745 66.5102 51.0646 66.7551C50.552 67.0229 49.9367 66.795 49.6918 66.3051L48.094 63.0041C47.0287 62.6965 45.9009 62.6566 44.6904 62.8816C43.5625 63.0867 42.3947 63.4968 41.1842 64.1319C39.0937 65.2399 37.6383 66.5928 37.6183 66.6127C37.4332 66.7978 37.1683 66.9004 36.9205 66.9004V66.8975ZM43.7448 54.149L39.6263 62.6537C39.8114 62.5512 39.9966 62.4487 40.2016 62.3461C41.5745 61.6084 42.9672 61.1157 44.3002 60.8708C45.223 60.7056 46.1031 60.6458 46.9632 60.7284L43.7448 54.149Z" fill="#F7D788"/>
<path d="M65.7181 66.9611C65.4105 66.9611 65.1229 66.8187 64.9178 66.5937L55.0175 54.6854V65.9159C55.0175 66.4883 54.5675 66.9412 53.9921 66.9412C53.4168 66.9412 52.9668 66.4912 52.9668 65.9159V51.8543C52.9668 51.4243 53.2345 51.0341 53.6418 50.8916C54.052 50.7492 54.502 50.8717 54.7697 51.1993L64.6899 63.0876V51.8771C64.6899 51.3046 65.14 50.8518 65.7153 50.8518C66.2906 50.8518 66.7407 51.3018 66.7407 51.8771V65.9386C66.7407 66.3687 66.453 66.739 66.0656 66.9013C65.9432 66.9412 65.8207 66.964 65.7181 66.964V66.9611Z" fill="#F7D788"/>
<path d="M69.9205 66.8975C69.7154 66.8975 69.4904 66.8349 69.3053 66.6925C68.9151 66.4048 68.7727 65.8722 68.9977 65.4222L75.822 51.3635C76.0071 51.016 76.3546 50.791 76.7448 50.791C77.135 50.791 77.5024 51.016 77.6676 51.3635L84.5346 65.4022C84.7795 65.895 84.5745 66.5102 84.0646 66.7551C83.552 67.0229 82.9367 66.795 82.6918 66.3051L81.094 63.0041C80.0287 62.6965 78.9009 62.6566 77.6904 62.8816C76.5625 63.0867 75.3947 63.4968 74.1842 64.1319C72.0937 65.2399 70.6382 66.5928 70.6183 66.6127C70.4332 66.7978 70.1683 66.9004 69.9205 66.9004V66.8975ZM76.7448 54.149L72.6263 62.6537C72.8114 62.5512 72.9966 62.4487 73.2016 62.3461C74.5744 61.6084 75.9672 61.1157 77.3002 60.8708C78.223 60.7056 79.1031 60.6458 79.9632 60.7284L76.7448 54.149Z" fill="#F7D788"/>
<path d="M98.9004 51.7734V65.8321C98.9004 66.3846 98.4504 66.8574 97.8751 66.8574C97.2998 66.8574 96.8497 66.3846 96.8497 65.8321V59.6828H88.0175V65.8321C88.0175 66.3846 87.5675 66.8574 86.9921 66.8574C86.4168 66.8574 85.9668 66.3846 85.9668 65.8321V51.7734C85.9668 51.1981 86.4168 50.748 86.9921 50.748C87.5675 50.748 88.0175 51.1981 88.0175 51.7734V57.635H96.8497V51.7734C96.8497 51.1981 97.3225 50.748 97.8751 50.748C98.4276 50.748 98.9004 51.1981 98.9004 51.7734Z" fill="#F7D788"/>
<path d="M122.45 51.8144C122.45 52.3869 122 52.8398 121.425 52.8398H116.936V65.8759C116.936 66.4484 116.463 66.9013 115.911 66.9013C115.358 66.9013 114.886 66.4513 114.886 65.8759V52.8398H110.377C109.802 52.8398 109.352 52.3897 109.352 51.8144C109.352 51.2391 109.802 50.7891 110.377 50.7891H121.425C121.998 50.7891 122.45 51.2391 122.45 51.8144Z" fill="#F7D788"/>
<path d="M125.728 66.8984C125.153 66.8984 124.703 66.4256 124.703 65.873V51.8115C124.703 51.239 125.153 50.7861 125.728 50.7861H131.815C131.898 50.7861 132.39 50.7861 133.026 50.9513C133.928 51.1763 134.726 51.6292 135.321 52.2216C135.794 52.6716 136.141 53.227 136.386 53.8622C136.674 54.56 136.797 55.3575 136.797 56.2404C136.797 58.1658 135.976 59.6639 134.438 60.544C134.068 60.7491 133.661 60.9342 133.208 61.0567C134.088 61.8143 134.888 62.777 135.523 63.9049C136.056 64.8078 136.631 64.8078 136.711 64.8078C137.264 64.7451 137.776 65.1154 137.859 65.6679C137.942 66.2205 137.551 66.7531 136.999 66.8357C136.856 66.8556 136.384 66.8983 135.748 66.6933C135.196 66.4882 134.396 66.0382 133.76 64.9303C133.043 63.6998 132.163 62.7372 131.137 62.0821C130.419 61.6121 129.887 61.4669 129.847 61.4669C129.314 61.3643 128.967 60.8944 129.027 60.3589C129.067 59.8263 129.519 59.4361 130.052 59.4361C131.507 59.4361 132.635 59.2111 133.433 58.7582C134.336 58.2455 134.746 57.4452 134.746 56.2376C134.746 55.4173 134.603 54.7423 134.296 54.2097C134.071 53.8195 133.763 53.5119 133.353 53.2669C132.635 52.8568 131.878 52.8368 131.815 52.8368H126.754V65.873C126.754 66.4256 126.304 66.8984 125.728 66.8984Z" fill="#F7D788"/>
<path d="M141.061 66.8975C140.856 66.8975 140.631 66.8349 140.446 66.6925C140.056 66.4048 139.913 65.8722 140.138 65.4222L146.963 51.3635C147.148 51.016 147.495 50.791 147.885 50.791C148.276 50.791 148.643 51.016 148.808 51.3635L155.675 65.4022C155.92 65.895 155.715 66.5102 155.205 66.7551C154.693 67.0229 154.077 66.795 153.832 66.3051L152.235 63.0041C151.169 62.6965 150.041 62.6566 148.831 62.8816C147.703 63.0867 146.535 63.4968 145.325 64.1319C143.234 65.2399 141.779 66.5928 141.759 66.6127C141.574 66.7978 141.309 66.9004 141.061 66.9004V66.8975ZM147.885 54.149L143.767 62.6537C143.952 62.5512 144.137 62.4487 144.342 62.3461C145.715 61.6084 147.108 61.1157 148.441 60.8708C149.364 60.7056 150.244 60.6458 151.104 60.7284L147.885 54.149Z" fill="#F7D788"/>
<path d="M169.857 66.9602C169.549 66.9602 169.262 66.8178 169.056 66.5928L159.156 54.6845V65.9149C159.156 66.4874 158.706 66.9402 158.131 66.9402C157.555 66.9402 157.105 66.4902 157.105 65.9149V51.8534C157.105 51.4233 157.373 51.0331 157.78 50.8907C158.191 50.7483 158.641 50.8707 158.908 51.1983L168.829 63.0866V51.8762C168.829 51.3037 169.279 50.8508 169.854 50.8508C170.429 50.8508 170.879 51.3008 170.879 51.8762V65.9377C170.879 66.3677 170.592 66.738 170.204 66.9004C170.082 66.9402 169.959 66.963 169.857 66.963V66.9602Z" fill="#F7D788"/>
<path d="M179.101 67.1458C174.652 67.1458 173.405 65.0552 173.259 64.8103C172.992 64.3176 173.177 63.6824 173.67 63.4175C174.162 63.1526 174.778 63.3349 175.042 63.8077C175.082 63.8476 175.287 64.1353 175.82 64.4229C176.845 64.9755 178.178 65.1008 179.098 65.1008C180.451 65.1008 181.477 64.8131 182.049 64.2805C182.499 63.8704 182.602 63.3577 182.602 63.0102C182.602 62.2526 182.377 61.6773 181.884 61.2073C181.249 60.5722 180.141 60.0994 178.583 59.7918C177.455 59.5468 176.472 59.1566 175.692 58.624C175.037 58.174 174.524 57.6186 174.154 56.9635C173.559 55.9382 173.559 55.0154 173.559 54.7704C173.559 53.6853 174.071 52.5973 174.951 51.8197C175.381 51.4295 175.914 51.1219 176.509 50.8969C177.124 50.6719 177.799 50.5693 178.497 50.5693C182.493 50.5693 183.661 52.4548 183.786 52.6799C184.054 53.1726 183.889 53.8077 183.396 54.0726C182.903 54.3375 182.288 54.1751 182.023 53.7023C181.983 53.6625 181.798 53.4346 181.345 53.1697C180.853 52.9248 179.973 52.6172 178.497 52.6172C177.369 52.6172 176.694 53.0074 176.304 53.3549C175.874 53.7451 175.606 54.2777 175.606 54.8103V54.8502C175.606 54.9328 175.606 55.4454 175.977 56.0379C176.202 56.4053 176.509 56.7129 176.919 56.9806C177.452 57.3281 178.15 57.5958 178.99 57.781C180.958 58.1712 182.371 58.8063 183.314 59.7291C184.194 60.5893 184.647 61.6972 184.647 63.0074C184.647 64.0726 184.216 65.0581 183.436 65.7958C182.473 66.6987 180.998 67.1487 179.09 67.1487L179.101 67.1458Z" fill="#F7D788"/>
<path d="M119.187 15.796C95.9084 20.0028 76.8996 28.5616 62.6188 41.2759H47.4863C50.5966 38.9803 53.8093 36.8413 57.1303 34.8533C65.2989 29.9544 74.0543 26.0011 83.3251 22.9592C86.6689 21.8541 90.081 20.8687 93.553 20.0085C97.9392 18.9091 102.417 18.0034 106.982 17.2771C107.902 17.1318 108.819 16.998 109.742 16.8612C112.852 16.4255 116.005 16.0666 119.19 15.796H119.187Z" fill="#F2CF88"/>
<path d="M123.108 16.3232C119.328 17.9011 115.597 19.5588 111.917 21.3446C111.903 21.356 111.88 21.3645 111.86 21.3759C111.08 21.749 110.302 22.1364 109.525 22.5266C109.505 22.538 109.488 22.5465 109.468 22.5579C105.518 24.5374 101.635 26.6764 97.8673 29.0176C97.8473 29.029 97.8303 29.0376 97.8132 29.049C92.0712 32.6063 86.5571 36.6252 81.362 41.2819H64.3555C79.0265 28.6046 98.6078 20.2367 122.61 16.3802C122.669 16.3717 122.863 16.3489 123.105 16.3261L123.108 16.3232Z" fill="#F2CF88"/>
<path d="M136.256 10.5155H89.1358L85.3164 2.43236V2.42666L87.4412 0H131.292L136.256 10.5155Z" fill="url(#paint0_linear_560_793)"/>
<path d="M123.023 13.677C118.233 13.9846 113.55 14.4659 108.982 15.1181L106.809 10.5183H121.531L123.023 13.677Z" fill="url(#paint1_linear_560_793)"/>
<path d="M84.0739 3.85364L89.6193 15.591L85.5066 20.3019C76.6572 23.0077 68.3462 26.4911 60.582 30.7434L78.2579 10.5156L84.0768 3.85364H84.0739Z" fill="url(#paint2_linear_560_793)"/>
<path d="M106.229 15.534C101.635 16.2717 97.1572 17.1831 92.8023 18.2796L91.2871 15.0726L90.8627 14.1725L89.8288 11.988L89.1367 10.5183H103.859L104.551 11.988L106.229 15.5368V15.534Z" fill="url(#paint3_linear_560_793)"/>
<path d="M136.052 41.2788H121.327L112.665 22.925L112.569 22.7228L111.916 21.3443L111.859 21.2246C115.397 19.5043 118.986 17.9037 122.611 16.377C122.671 16.3685 122.865 16.3457 123.107 16.3229C123.249 16.3087 123.406 16.2916 123.563 16.2773C123.796 16.2574 124.033 16.2346 124.223 16.2175L124.739 17.3141L136.052 41.2816V41.2788Z" fill="url(#paint4_linear_560_793)"/>
<path d="M118.376 41.2759H103.66L98.9404 31.2845L98.5274 30.4072L97.8666 29.0145L97.8125 28.9005C101.601 26.5451 105.497 24.3947 109.467 22.4038L109.524 22.5234L110.171 23.8991L110.367 24.3178L118.376 41.2759Z" fill="url(#paint5_linear_560_793)"/>
<path opacity="0.21" d="M104.551 11.988H89.8288L89.1367 10.5183H103.859L104.551 11.988Z" fill="#383838"/>
<path opacity="0.28" d="M104.551 11.988H89.8288L89.1367 10.5183H103.859L104.551 11.988Z" fill="#383838"/>
<path opacity="0.28" d="M110.367 24.3183L98.9404 31.285L98.5274 30.4077L97.8666 29.0149L97.8125 28.901C101.601 26.5456 105.497 24.3952 109.467 22.4043L109.524 22.5239L110.171 23.8996L110.367 24.3183Z" fill="#383838"/>
<path opacity="0.28" d="M112.667 22.9251L112.571 22.7229L111.918 21.3444L111.861 21.2248C115.399 19.5045 118.988 17.9038 122.613 16.3772C122.673 16.3686 122.867 16.3458 123.109 16.323C123.251 16.3088 123.408 16.2917 123.565 16.2775L112.667 22.9251Z" fill="#383838"/>
<defs>
<linearGradient id="paint0_linear_560_793" x1="60.4887" y1="29.6725" x2="125.473" y2="-1.21616" gradientUnits="userSpaceOnUse">
<stop stop-color="#9A602C"/>
<stop offset="0.15" stop-color="#B48249"/>
<stop offset="0.47" stop-color="#F5D792"/>
<stop offset="0.51" stop-color="#FFE49D"/>
<stop offset="0.65" stop-color="#E9C17A"/>
<stop offset="1" stop-color="#B7712A"/>
</linearGradient>
<linearGradient id="paint1_linear_560_793" x1="63.7069" y1="36.4397" x2="128.688" y2="5.55113" gradientUnits="userSpaceOnUse">
<stop stop-color="#9A602C"/>
<stop offset="0.15" stop-color="#B48249"/>
<stop offset="0.47" stop-color="#F5D792"/>
<stop offset="0.51" stop-color="#FFE49D"/>
<stop offset="0.65" stop-color="#E9C17A"/>
<stop offset="1" stop-color="#B7712A"/>
</linearGradient>
<linearGradient id="paint2_linear_560_793" x1="58.1468" y1="24.7451" x2="123.128" y2="-6.14351" gradientUnits="userSpaceOnUse">
<stop stop-color="#9A602C"/>
<stop offset="0.15" stop-color="#B48249"/>
<stop offset="0.47" stop-color="#F5D792"/>
<stop offset="0.51" stop-color="#FFE49D"/>
<stop offset="0.65" stop-color="#E9C17A"/>
<stop offset="1" stop-color="#B7712A"/>
</linearGradient>
<linearGradient id="paint3_linear_560_793" x1="60.8912" y1="30.5155" x2="125.873" y2="-0.376008" gradientUnits="userSpaceOnUse">
<stop stop-color="#9A602C"/>
<stop offset="0.15" stop-color="#B48249"/>
<stop offset="0.47" stop-color="#F5D792"/>
<stop offset="0.51" stop-color="#FFE49D"/>
<stop offset="0.65" stop-color="#E9C17A"/>
<stop offset="1" stop-color="#B7712A"/>
</linearGradient>
<linearGradient id="paint4_linear_560_793" x1="72.7822" y1="55.5738" x2="137.781" y2="24.6767" gradientUnits="userSpaceOnUse">
<stop stop-color="#9A602C"/>
<stop offset="0.15" stop-color="#B48249"/>
<stop offset="0.47" stop-color="#F5D792"/>
<stop offset="0.51" stop-color="#FFE49D"/>
<stop offset="0.65" stop-color="#E9C17A"/>
<stop offset="1" stop-color="#B7712A"/>
</linearGradient>
<linearGradient id="paint5_linear_560_793" x1="71.1791" y1="52.156" x2="136.158" y2="21.2702" gradientUnits="userSpaceOnUse">
<stop stop-color="#9A602C"/>
<stop offset="0.15" stop-color="#B48249"/>
<stop offset="0.47" stop-color="#F5D792"/>
<stop offset="0.51" stop-color="#FFE49D"/>
<stop offset="0.65" stop-color="#E9C17A"/>
<stop offset="1" stop-color="#B7712A"/>
</linearGradient>
</defs>
</svg>
