<svg width="14" height="17" viewBox="0 0 14 17" fill="none" xmlns="http://www.w3.org/2000/svg">
<path d="M4.375 14.8211H9.625V16.5642H4.375C1.96 16.5642 0 14.6119 0 12.2064V4.36222H1.75V12.2064C1.75 13.6532 2.9225 14.8211 4.375 14.8211ZM5.6175 2.97642C6.3 2.29659 6.3 1.1897 5.6175 0.509869C4.935 -0.169956 3.82375 -0.169956 3.14125 0.509869C2.45875 1.1897 2.45875 2.29659 3.14125 2.97642C3.82375 3.66496 4.92625 3.66496 5.6175 2.97642ZM6.5625 6.10536C6.5625 5.14663 5.775 4.36222 4.8125 4.36222H4.375C3.4125 4.36222 2.625 5.14663 2.625 6.10536V11.3348C2.625 12.7816 3.7975 13.9495 5.25 13.9495H9.68625L12.7487 17L14 15.7537L9.56375 11.3348H6.5625V6.10536Z" fill="url(#paint0_linear_115_977)"/>
<defs>
<linearGradient id="paint0_linear_115_977" x1="0" y1="8.5" x2="14" y2="8.5" gradientUnits="userSpaceOnUse">
<stop stop-color="#F7D788"/>
<stop offset="1" stop-color="#E3BC78"/>
</linearGradient>
</defs>
</svg>
