<svg width="20" height="20" viewBox="0 0 20 20" fill="none" xmlns="http://www.w3.org/2000/svg">
<path d="M18.3388 1.66139C19.5592 2.88177 19.5592 4.86041 18.3388 6.0808L6.7975 17.6221C6.29688 18.1228 5.66961 18.4779 4.98277 18.6496L1.40308 19.5445C0.83091 19.6876 0.312635 19.1693 0.455678 18.5971L1.3506 15.0175C1.52231 14.3306 1.87746 13.7033 2.37808 13.2027L13.9194 1.66139C15.1398 0.440997 17.1185 0.440997 18.3388 1.66139ZM12.8145 4.97578L3.48294 14.3076C3.18256 14.608 2.96947 14.9843 2.86645 15.3964L2.28733 17.7129L4.60381 17.1338C5.01591 17.0308 5.39227 16.8177 5.69265 16.5173L15.0238 7.18516L12.8145 4.97578ZM15.0243 2.76624L13.9191 3.87109L16.1285 6.08047L17.234 4.97595C17.8442 4.36575 17.8442 3.37643 17.234 2.76624C16.6238 2.15604 15.6345 2.15604 15.0243 2.76624Z" fill="url(#paint0_linear_89_2574)"/>
<defs>
<linearGradient id="paint0_linear_89_2574" x1="9.84289" y1="0.746094" x2="9.84289" y2="19.5686" gradientUnits="userSpaceOnUse">
<stop stop-color="#FEEDC4"/>
<stop offset="1" stop-color="#F7D788"/>
</linearGradient>
</defs>
</svg>
