<svg width="101" height="84" viewBox="0 0 101 84" fill="none" xmlns="http://www.w3.org/2000/svg">
<path d="M42.2676 0.798302C41.8891 1.23795 41.8891 3.4362 42.3937 6.76498C42.7723 9.65411 43.0877 17.3794 43.1508 23.9741C43.1508 33.6465 42.8984 37.3521 41.7629 43.5072C41.0059 47.7153 40.375 51.2953 40.375 51.5465C40.375 51.7349 51.7304 51.9233 65.6092 51.9233C82.0115 51.9233 90.8435 51.6721 90.8435 51.2953C90.8435 50.9812 90.3388 48.0293 89.771 44.8889C88.1939 36.4728 88.257 17.4422 89.8341 8.6492C90.5911 4.2527 90.7804 1.99164 90.3388 1.74041C89.9603 1.55199 87.3107 1.55199 84.4087 1.80322C74.5043 2.61971 58.102 2.30567 50.2794 1.17514C44.791 0.35865 42.6461 0.233036 42.2676 0.798302Z" fill="url(#paint0_linear_564_492)"/>
<path d="M9.46289 4.18962C9.46289 4.8805 9.90449 8.3349 10.4723 11.9149C11.8601 20.6451 11.9232 36.0329 10.5353 43.6325C8.83203 52.928 7.31798 51.9231 22.9632 51.9231C35.328 51.9231 36.5266 51.7975 36.842 50.7925C37.536 48.5315 39.1131 38.1683 39.744 32.1388C40.2486 26.2349 39.5547 6.6391 38.7346 5.32015C38.5453 5.06892 35.5172 4.8177 31.9844 4.8177C28.4516 4.8177 22.4585 4.37804 18.6103 3.87559C9.65215 2.68225 9.46289 2.68225 9.46289 4.18962Z" fill="url(#paint1_linear_564_492)"/>
<path d="M4.03748 55.6917C3.28045 55.9429 2.08182 57.0106 1.3248 57.9527C0.126171 59.5229 0 60.3394 0 69.5721V79.5584L1.82948 81.5682L3.65896 83.6409H50.4685H97.278L99.1705 81.5054C100.811 79.684 101.063 79.0559 100.748 76.7949C100.495 75.0991 99.8014 73.7173 98.7289 72.838L97.0887 71.3935H56.8401C21.8276 71.3935 16.4653 71.2679 15.7714 70.4514C15.1405 69.6977 15.1405 69.3208 15.7714 68.5671C16.4653 67.7507 21.8276 67.625 56.9032 67.625H97.278L99.1074 65.8036C101.631 63.2913 101.631 60.2138 99.1074 57.4503L97.278 55.3776L51.2886 55.252C26.0543 55.1892 4.73142 55.3776 4.03748 55.6917Z" fill="url(#paint2_linear_564_492)"/>
<defs>
<linearGradient id="paint0_linear_564_492" x1="65.6092" y1="0.451435" x2="65.6092" y2="51.9233" gradientUnits="userSpaceOnUse">
<stop stop-color="#FEEDC4"/>
<stop offset="1" stop-color="#F7D788"/>
</linearGradient>
<linearGradient id="paint1_linear_564_492" x1="24.689" y1="3.01641" x2="24.689" y2="51.9548" gradientUnits="userSpaceOnUse">
<stop stop-color="#FEEDC4"/>
<stop offset="1" stop-color="#F7D788"/>
</linearGradient>
<linearGradient id="paint2_linear_564_492" x1="50.5" y1="55.24" x2="50.5" y2="83.6409" gradientUnits="userSpaceOnUse">
<stop stop-color="#FEEDC4"/>
<stop offset="1" stop-color="#F7D788"/>
</linearGradient>
</defs>
</svg>
