<svg width="18" height="26" viewBox="0 0 18 26" fill="none" xmlns="http://www.w3.org/2000/svg">
<path d="M9.50042 0.271356C4.69667 0.121485 0.681003 3.90183 0.530847 8.71472C0.380683 13.5279 5.9917 20.0899 8.6977 26.0005C11.8904 20.2739 17.7762 14.0705 17.9264 9.25744C18.0765 4.44454 14.3043 0.421229 9.50042 0.271356ZM9.07344 13.9571C6.37139 13.8728 4.24977 11.5989 4.33468 8.87748C4.41956 6.15678 6.67882 4.01895 9.38087 4.10325C12.0829 4.18755 14.2046 6.46206 14.1197 9.18276C14.0348 11.9042 11.7755 14.0414 9.07344 13.9571ZM9.29546 6.84083C8.09417 6.80335 7.09017 7.75337 7.05246 8.96227C7.01472 10.172 7.95764 11.1827 9.15883 11.2202C10.3595 11.2576 11.3636 10.3076 11.4013 9.09795C11.4391 7.88899 10.4961 6.87829 9.29546 6.84083Z" fill="url(#paint0_linear_612_852)"/>
<defs>
<linearGradient id="paint0_linear_612_852" x1="9.50049" y1="0.271358" x2="8.69778" y2="26.0005" gradientUnits="userSpaceOnUse">
<stop stop-color="#FEEDC4"/>
<stop offset="1" stop-color="#F7D788"/>
</linearGradient>
</defs>
</svg>
