<svg width="101" height="81" viewBox="0 0 101 81" fill="none" xmlns="http://www.w3.org/2000/svg">
<path fill-rule="evenodd" clip-rule="evenodd" d="M1.1457 14.6796C-0.0770053 12.3466 -0.332514 9.62624 0.43441 7.10643C1.20133 4.58662 2.92908 2.46983 5.24416 1.21365C7.55925 -0.042527 10.2757 -0.337187 12.8063 0.393368C15.3369 1.12392 17.4783 2.821 18.7677 5.11776L34.0534 32.3988C34.4531 33.1626 34.5393 34.0521 34.2937 34.8784C34.048 35.7048 33.4899 36.4028 32.7379 36.8242C31.9859 37.2457 31.0991 37.3573 30.2661 37.1355C29.4331 36.9136 28.7193 36.3757 28.2765 35.6361L12.9909 8.35509C12.561 7.56209 11.8337 6.97234 10.969 6.71558C10.1043 6.45882 9.173 6.55607 8.38 6.98596C7.58701 7.41584 6.99726 8.14313 6.7405 9.00784C6.48373 9.87254 6.58099 10.8038 7.01087 11.5968L22.3672 40.8476C22.5778 41.2334 22.7096 41.6573 22.7548 42.0945C22.7999 42.5318 22.7576 42.9736 22.6303 43.3944C22.503 43.8151 22.2932 44.2063 22.0132 44.5451C21.7332 44.8839 21.3885 45.1636 20.9993 45.3679C20.6101 45.5722 20.1841 45.697 19.7461 45.735C19.3082 45.7729 18.8671 45.7234 18.4485 45.5892C18.0299 45.455 17.6423 45.2388 17.3081 44.9532C16.9739 44.6677 16.6999 44.3185 16.502 43.9259L1.1457 14.6796ZM91.7025 68.8662C91.8811 68.998 92.0844 69.0925 92.3002 69.144C92.5161 69.1955 92.7402 69.203 92.959 69.1661C93.1778 69.1291 93.387 69.0483 93.5739 68.9287C93.7609 68.8091 93.9218 68.6531 94.0471 68.4699C94.1724 68.2867 94.2595 68.0801 94.3032 67.8625C94.3469 67.6449 94.3462 67.4207 94.3014 67.2034C94.2565 66.986 94.1683 66.7799 94.042 66.5974C93.9157 66.4149 93.7539 66.2597 93.5663 66.1412L78.1128 55.8948C77.7503 55.6541 77.4388 55.3443 77.196 54.9832C76.9532 54.6222 76.7839 54.2168 76.6978 53.7903C76.6117 53.3637 76.6104 52.9244 76.6941 52.4974C76.7777 52.0704 76.9447 51.6641 77.1853 51.3016C77.426 50.9391 77.7358 50.6275 78.0969 50.3847C78.458 50.142 78.8633 49.9727 79.2899 49.8865C79.7164 49.8004 80.1557 49.7991 80.5827 49.8828C81.0097 49.9664 81.4161 50.1334 81.7786 50.3741L97.2276 60.6205C98.1545 61.2217 98.9516 62.0024 99.5719 62.9166C100.192 63.8307 100.623 64.8598 100.84 65.9432C101.056 67.0265 101.053 68.1423 100.832 69.2246C100.61 70.3069 100.174 71.3339 99.5492 72.245C98.9244 73.1561 98.1235 73.9329 97.1937 74.5296C96.264 75.1263 95.2242 75.5308 94.1356 75.7193C93.047 75.9078 91.9317 75.8765 90.8555 75.6272C89.7792 75.3778 88.7638 74.9156 87.869 74.2676L75.9046 65.7878C75.5496 65.5361 75.2477 65.2169 75.0161 64.8486C74.7845 64.4802 74.6277 64.0698 74.5547 63.6408C74.4817 63.2118 74.4939 62.7727 74.5906 62.3484C74.6874 61.9241 74.8667 61.5231 75.1184 61.1681C75.3701 60.8132 75.6893 60.5113 76.0577 60.2797C76.4261 60.0481 76.8365 59.8913 77.2654 59.8183C77.6944 59.7453 78.1336 59.7575 78.5578 59.8542C78.9821 59.9509 79.3832 60.1303 79.7381 60.382L91.7025 68.8662Z" fill="url(#paint0_linear_564_521)"/>
<path fill-rule="evenodd" clip-rule="evenodd" d="M67.4021 26.4367C69.1206 26.2001 70.8699 26.3345 72.5322 26.8307C74.1945 27.3269 75.7312 28.1734 77.0389 29.3133C78.3466 30.4532 79.3949 31.86 80.1133 33.439C80.8318 35.018 81.2036 36.7326 81.2038 38.4674V76.9134C81.2038 77.7919 80.8548 78.6344 80.2336 79.2556C79.6124 79.8768 78.7699 80.2258 77.8914 80.2258H13.8515C12.973 80.2258 12.1304 79.8768 11.5092 79.2556C10.888 78.6344 10.5391 77.7919 10.5391 76.9134V60.263C10.5388 53.0617 13.1452 46.1036 17.8767 40.6748C22.6082 35.2459 29.1448 31.7132 36.2787 30.7296L67.3977 26.4367H67.4021ZM60.3577 48.0733C59.7298 47.4882 58.8992 47.1697 58.0411 47.1849C57.183 47.2 56.3642 47.5476 55.7573 48.1545C55.1504 48.7614 54.8028 49.5802 54.7877 50.4383C54.7725 51.2964 55.091 52.127 55.6761 52.7549L64.5092 61.588C65.1372 62.1731 65.9677 62.4916 66.8258 62.4765C67.684 62.4613 68.5027 62.1137 69.1096 61.5068C69.7165 60.8999 70.0641 60.0812 70.0793 59.223C70.0944 58.3649 69.7759 57.5344 69.1908 56.9064L60.3577 48.0733Z" fill="url(#paint1_linear_564_521)"/>
<defs>
<linearGradient id="paint0_linear_564_521" x1="50.5" y1="0" x2="50.5" y2="75.8407" gradientUnits="userSpaceOnUse">
<stop stop-color="#FEEDC4"/>
<stop offset="1" stop-color="#F7D788"/>
</linearGradient>
<linearGradient id="paint1_linear_564_521" x1="45.8714" y1="26.3232" x2="45.8714" y2="80.2258" gradientUnits="userSpaceOnUse">
<stop stop-color="#FEEDC4"/>
<stop offset="1" stop-color="#F7D788"/>
</linearGradient>
</defs>
</svg>
