<svg width="37" height="45" viewBox="0 0 37 45" fill="none" xmlns="http://www.w3.org/2000/svg">
<path fill-rule="evenodd" clip-rule="evenodd" d="M28.849 0C27.6441 14.415 11.1452 4.94418 4.87892 16.9494C3.99263 18.9051 3.403 20.7179 3.12099 22.3843C2.65954 22.952 2.2347 23.5636 1.85748 24.2155C-0.0542654 27.5299 -0.442475 31.3021 0.473113 34.7301C1.39236 38.1544 3.61541 41.2308 6.92984 43.1425C10.2443 45.0543 14.0165 45.4425 17.4445 44.5269C20.8688 43.6076 23.9451 41.3846 25.8569 38.0702C26.7029 36.6052 27.2486 35.0524 27.5196 33.4776C29.468 32.3422 31.1893 30.7381 32.5077 28.614C34.7344 23.4427 30.6729 19.3189 36.2323 15.6785C32.797 13.9499 30.7022 15.7371 28.6952 19.231C26.5234 23.9481 18.3893 18.363 26.0144 15.4625C32.5663 12.9721 31.9693 5.2921 28.849 0ZM13.5587 31.097C13.599 31.097 13.6429 31.097 13.6832 31.1007L18.4553 27.5262C19.0083 27.1124 19.7957 27.2223 20.2095 27.7753C20.6234 28.3283 20.5135 29.1157 19.9605 29.5296L15.2361 33.071C15.1042 33.8804 14.4047 34.4994 13.5587 34.4994C12.6211 34.4994 11.8594 33.7376 11.8594 32.8C11.8594 32.6206 11.8887 32.4484 11.9399 32.2836L7.08 28.5261C6.77236 28.288 6.71742 27.8485 6.95182 27.5409C7.18987 27.2333 7.62935 27.1783 7.93699 27.4127L12.8812 31.2362C13.0899 31.1483 13.317 31.097 13.5587 31.097ZM19.7627 20.9157C25.6445 24.3107 27.483 31.1703 24.0843 37.052C20.6893 42.9338 13.8297 44.7723 7.94798 41.3773C2.06624 37.9823 0.227736 31.1227 3.6264 25.2409C7.02506 19.3592 13.881 17.5207 19.7627 20.9157Z" fill="url(#paint0_linear_560_863)"/>
<defs>
<linearGradient id="paint0_linear_560_863" x1="18.1162" y1="0" x2="18.1162" y2="45" gradientUnits="userSpaceOnUse">
<stop stop-color="#FEEDC4"/>
<stop offset="1" stop-color="#F7D788"/>
</linearGradient>
</defs>
</svg>
