<svg width="101" height="86" viewBox="0 0 101 86" fill="none" xmlns="http://www.w3.org/2000/svg">
<path d="M95.9613 0.712402H5.26746C2.4216 0.712402 0 3.00942 0 5.84272V63.6443C0 66.4776 2.4216 68.7747 5.26746 68.7747H38.7878L35.8509 80.4034H31.3763C29.953 80.4034 28.7998 81.5515 28.7998 82.9685C28.7998 84.3855 29.953 85.5337 31.3763 85.5337H37.8599H63.5761H70.196C71.6193 85.5337 72.7726 84.3855 72.7726 82.9685C72.7726 81.5515 71.6193 80.4034 70.196 80.4034H65.5851L62.6482 68.7747H95.9613C98.8072 68.7747 101 66.4776 101 63.6443V5.84272C101 3.00942 98.8075 0.712402 95.9613 0.712402ZM50.5 48.9374C50.5 49.7706 49.5549 50.2586 48.8696 49.7802L40.6467 44.0178C40.4728 43.8964 40.264 43.8067 40.0517 43.8067H31.0877C30.5168 43.8067 29.8878 43.3946 29.8878 42.8262V24.5349C29.8878 23.9664 30.5168 23.6278 31.0877 23.6278H40.0475C40.2598 23.6278 40.467 23.5016 40.6408 23.3802L48.8699 17.611C49.5553 17.1328 50.5 17.5905 50.5 18.4236V48.9374ZM58.9867 41.1366C58.4835 41.6373 57.8239 41.8877 57.1646 41.8877C56.5054 41.8877 55.8458 41.6373 55.3425 41.1366C54.3363 40.1345 54.3363 38.5106 55.3425 37.5088C57.8077 35.0544 57.8077 31.0613 55.3425 28.6073C54.3363 27.6052 54.3363 25.9813 55.3425 24.9795C56.3491 23.9781 57.9802 23.9781 58.9864 24.9795C63.461 29.434 63.461 36.6821 58.9867 41.1366ZM67.7469 47.9893C67.2437 48.49 66.5841 48.7404 65.9248 48.7404C65.2656 48.7404 64.606 48.49 64.1027 47.9893C63.0965 46.9872 63.0965 45.3633 64.1027 44.3615C70.3633 38.1289 70.3633 27.9872 64.1027 21.7546C63.0965 20.7525 63.0965 19.1285 64.1027 18.1268C65.1093 17.1253 66.7404 17.1253 67.7466 18.1268C76.0162 26.3596 76.0162 39.7558 67.7469 47.9893Z" fill="url(#paint0_linear_564_520)"/>
<defs>
<linearGradient id="paint0_linear_564_520" x1="50.5" y1="0.712402" x2="50.5" y2="85.5337" gradientUnits="userSpaceOnUse">
<stop stop-color="#FEEDC4"/>
<stop offset="1" stop-color="#F7D788"/>
</linearGradient>
</defs>
</svg>
