<svg width="65" height="113" viewBox="0 0 65 113" fill="none" xmlns="http://www.w3.org/2000/svg">
<path d="M7.0795 1.04055C6.88005 1.23912 6.73047 6.60044 6.73047 13.0042V24.5708L18.5976 24.4715L30.4149 24.3226V12.6568V0.990911L18.8968 0.841986C12.5643 0.792343 7.27895 0.891626 7.0795 1.04055ZM15.9549 12.6568V14.8906L13.3621 15.0396L10.7194 15.1885V13.0042C10.7194 11.8128 10.869 10.6711 11.0685 10.4725C11.2679 10.2739 12.4646 10.1747 13.7111 10.2739L15.9549 10.4229V12.6568ZM26.0769 12.756L26.2265 15.1388H23.7334H21.1904V13.0042C21.1904 11.8128 21.34 10.6711 21.5395 10.4725C21.7389 10.2739 22.786 10.1747 23.9328 10.2739L25.9273 10.4229L26.0769 12.756Z" fill="url(#paint0_linear_564_483)"/>
<path d="M61.5795 1.23891C60.9313 1.63604 60.7817 7.49379 60.5822 47.2569L60.3329 92.8282L59.1861 95.7074C57.5407 99.778 53.0531 104.444 49.0143 106.281C46.1721 107.572 45.3744 107.721 40.6375 107.721C36.0003 107.721 35.1028 107.572 32.6596 106.43C25.6789 103.104 21.5902 97.0477 21.0417 89.2043C20.8921 87.1193 21.0417 86.474 21.6401 86.2258C22.8866 85.779 23.1858 85.084 23.1858 82.1552V79.4249L25.6789 78.5313C30.5654 76.7938 35.0031 72.3261 36.3992 67.6597C36.9975 65.5748 37.1471 61.7524 37.1471 46.6612C37.1471 29.3859 37.0973 28.1448 36.2496 27.4002C35.402 26.6555 33.4574 26.5563 18.6484 26.5563C4.98619 26.5563 1.74517 26.7052 0.947377 27.2513C0.0498619 27.9462 0 28.7405 0 47.0087C0 65.7733 0 66.0712 1.14682 68.5036C1.79503 69.844 2.84213 71.8297 3.5402 72.8225C5.13578 75.0564 9.22446 77.886 12.1164 78.7299L14.2106 79.3256V82.5523C14.2106 85.2826 14.3602 85.779 15.2079 85.9776C16.0057 86.1761 16.2051 86.6726 16.2051 88.3604C16.2051 97.3952 21.7398 106.231 30.0169 110.302C42.3328 116.358 56.9423 111.245 62.9756 98.6859L64.8205 94.8138L64.9701 48.4483C65.0698 14.2451 64.9202 1.93389 64.5213 1.43748C63.8731 0.643204 62.6764 0.543922 61.5795 1.23891ZM20.3935 44.5266C19.7453 46.8102 19.1968 48.7958 19.1968 48.9944C19.1968 49.193 20.9919 49.3915 23.2357 49.4908L27.2246 49.6397L21.8395 55.6464C18.8977 58.9724 16.4046 61.6531 16.3048 61.5538C16.255 61.5041 16.9531 59.4192 17.9503 56.9371C18.8977 54.455 19.6955 52.3204 19.6955 52.1715C19.6955 52.0225 18.0002 51.8736 15.8561 51.7743L12.0666 51.6254L16.6539 46.0159C19.147 42.9877 21.291 40.456 21.3908 40.456C21.4905 40.456 21.0417 42.2927 20.3935 44.5266Z" fill="url(#paint1_linear_564_483)"/>
<defs>
<linearGradient id="paint0_linear_564_483" x1="18.5727" y1="0.829071" x2="18.5727" y2="24.5708" gradientUnits="userSpaceOnUse">
<stop stop-color="#FEEDC4"/>
<stop offset="1" stop-color="#F7D788"/>
</linearGradient>
<linearGradient id="paint1_linear_564_483" x1="32.5" y1="0.774155" x2="32.5" y2="112.845" gradientUnits="userSpaceOnUse">
<stop stop-color="#FEEDC4"/>
<stop offset="1" stop-color="#F7D788"/>
</linearGradient>
</defs>
</svg>
