<svg width="25" height="25" viewBox="0 0 25 25" fill="none" xmlns="http://www.w3.org/2000/svg">
<g clip-path="url(#clip0_560_784)">
<path d="M12.5 25C19.4036 25 25 19.4036 25 12.5C25 5.59644 19.4036 0 12.5 0C5.59644 0 0 5.59644 0 12.5C0 19.4036 5.59644 25 12.5 25Z" fill="#30FC0F"/>
<path d="M5.5 19.5332L6.48877 15.9199C5.8776 14.8603 5.55659 13.6583 5.55811 12.4351C5.55811 8.5918 8.68652 5.46484 12.5288 5.46484C13.4447 5.46497 14.3517 5.64557 15.1978 5.99632C16.0439 6.34706 16.8126 6.86109 17.46 7.50902C18.1074 8.15695 18.6207 8.92608 18.9708 9.77249C19.3208 10.6189 19.5006 11.526 19.5 12.4419C19.5 16.2852 16.3711 19.4126 12.5293 19.4126H12.5264C11.3625 19.4125 10.2173 19.1208 9.19531 18.564L5.5 19.5332ZM9.36621 17.3018L9.57812 17.4272C10.4708 17.956 11.4893 18.2349 12.5269 18.2349H12.5293C15.7227 18.2349 18.3218 15.6357 18.3232 12.4409C18.3233 11.5432 18.1147 10.6578 17.714 9.85449C17.3133 9.05119 16.7315 8.35198 16.0143 7.81202C15.2972 7.27206 14.4644 6.90613 13.5816 6.74309C12.6988 6.58005 11.7903 6.62437 10.9275 6.87254C10.0648 7.1207 9.2716 7.56594 8.6104 8.17312C7.94919 8.7803 7.43813 9.53282 7.1175 10.3713C6.79688 11.2098 6.67548 12.1113 6.76287 13.0047C6.85027 13.8982 7.14407 14.7591 7.62109 15.5195L7.75879 15.7388L7.17285 17.877L9.36621 17.3018Z" fill="white"/>
<path fill-rule="evenodd" clip-rule="evenodd" d="M16.041 14.0991C15.9976 14.0264 15.8813 13.9829 15.707 13.8955C15.5327 13.8081 14.6768 13.3872 14.5171 13.3296C14.3574 13.272 14.2412 13.2422 14.1265 13.417C14.0117 13.5918 13.6768 13.9839 13.5752 14.1006C13.4736 14.2173 13.3721 14.2315 13.1978 14.1441C13.0234 14.0566 12.4624 13.8731 11.7974 13.2793C11.2793 12.8174 10.9297 12.2471 10.8286 12.0728C10.7275 11.8984 10.8179 11.8042 10.9048 11.7173C10.9834 11.6392 11.0791 11.5137 11.166 11.4121C11.2378 11.3233 11.2965 11.2246 11.3403 11.1191C11.3634 11.0711 11.3742 11.018 11.3716 10.9647C11.369 10.9114 11.3533 10.8596 11.3257 10.814C11.2822 10.7266 10.9351 9.86964 10.7886 9.521C10.6475 9.17921 10.5034 9.22804 10.3979 9.22169C10.2925 9.21534 10.1802 9.21583 10.064 9.21583C9.97573 9.21815 9.88894 9.2387 9.80902 9.27618C9.72911 9.31365 9.65782 9.36725 9.59961 9.4336C9.43994 9.60792 8.99023 10.0293 8.99023 10.8867C8.99023 11.7441 9.61426 12.5723 9.70166 12.6885C9.78906 12.8047 10.9297 14.564 12.6772 15.3184C13.0016 15.4582 13.3331 15.5808 13.6704 15.6856C14.0256 15.7935 14.4012 15.817 14.7671 15.7544C15.1021 15.7056 15.7979 15.333 15.9429 14.9243C16.0879 14.5156 16.0845 14.1719 16.041 14.0991Z" fill="white"/>
</g>
<defs>
<clipPath id="clip0_560_784">
<rect width="25" height="25" fill="white"/>
</clipPath>
</defs>
</svg>
